<svg width="25" height="28" viewBox="0 0 25 28" fill="none" xmlns="http://www.w3.org/2000/svg">
<rect y="4" width="10" height="17" rx="2" fill="#09CFAF"/>
<path d="M7 11.5L10 8.5L12.5 9.5L10.5 12L9.5 13V14.5L11.5 16.5L10.5 21.5L2.5 22V19L7 16V11.5Z" fill="#E2F7F4"/>
<path d="M2.02229 19.5353C1.93458 19.5945 1.8722 19.6382 1.80826 19.6791C1.55564 19.8401 1.24182 19.7914 1.09134 19.5688C0.923311 19.3197 0.990365 19.0331 1.26443 18.8499C1.55993 18.6522 1.85856 18.4597 2.15562 18.2647C3.5119 17.3751 4.86701 16.4839 6.22562 15.5986C6.32075 15.5366 6.35154 15.4746 6.35077 15.3658C6.34687 14.4368 6.34687 13.5082 6.35038 12.5792C6.35038 12.4739 6.34843 12.4217 6.2112 12.4346C5.9886 12.4552 5.80615 12.3313 5.72935 12.148C5.64475 11.9465 5.68763 11.7633 5.86502 11.5867C7.63375 9.82805 9.40327 8.07023 11.172 6.31163C11.5451 5.94089 11.9154 5.56702 12.2897 5.19745C12.3575 5.13039 12.393 5.06451 12.3922 4.96276C12.3868 4.26766 12.3852 3.57257 12.3934 2.87786C12.395 2.73946 12.3458 2.72387 12.2285 2.72621C11.8648 2.73361 11.501 2.73011 11.1373 2.72972C10.8052 2.72933 10.5915 2.53167 10.595 2.23071C10.5982 1.94339 10.811 1.75744 11.1385 1.75705C11.4956 1.75666 11.8531 1.75003 12.2102 1.76017C12.349 1.76406 12.4 1.73872 12.3938 1.58473C12.3798 1.24089 12.3883 0.896264 12.3895 0.552028C12.3914 0.21559 12.5946 -0.00116483 12.9049 4.70936e-06C13.2031 0.00117425 13.4035 0.218709 13.4047 0.545791C13.4058 0.896653 13.4101 1.24752 13.4019 1.59799C13.3992 1.72157 13.4273 1.76328 13.559 1.75978C13.9356 1.75003 14.3126 1.7551 14.6892 1.75666C14.9839 1.75783 15.1987 1.95353 15.2038 2.22135C15.2093 2.50945 15.012 2.71841 14.7075 2.72504C14.3243 2.73361 13.9407 2.73478 13.5579 2.72426C13.4234 2.72075 13.4012 2.76597 13.4023 2.88643C13.4078 3.5749 13.4078 4.26337 13.4023 4.95184C13.4015 5.06022 13.4394 5.12923 13.5126 5.20213C15.5313 7.20711 17.5476 9.21366 19.5646 11.2202C19.6937 11.3485 19.8258 11.4732 19.9529 11.6034C20.1089 11.7633 20.1506 11.9523 20.0562 12.1554C19.9666 12.3492 19.804 12.4506 19.5896 12.4357C19.4761 12.4279 19.443 12.4463 19.4438 12.5706C19.4504 13.5125 19.4489 14.4544 19.4453 15.3962C19.4453 15.4918 19.4758 15.5471 19.5557 15.599C21.2078 16.673 22.8577 17.7513 24.5102 18.8253C24.7048 18.9517 24.8151 19.0873 24.7964 19.3477C24.7675 19.7458 24.3368 19.8623 24.0822 19.7239C23.9816 19.6694 23.8884 19.6011 23.766 19.5224V19.7469C23.766 22.2868 23.766 24.8263 23.766 27.3661C23.766 27.8164 23.5949 27.9942 23.152 27.9942C16.3055 27.9945 9.45902 27.9922 2.61252 28C2.21994 28.0004 2.01605 27.7217 2.01722 27.4012C2.02736 24.79 2.02307 22.1788 2.02307 19.5353H2.02229ZM3.02771 22.9449H3.02888C3.02888 24.2438 3.032 25.5428 3.02459 26.8418C3.02381 26.995 3.06903 27.0176 3.20743 27.0172C5.22099 27.0129 7.23455 27.0125 9.24772 27.0172C9.38962 27.0172 9.42978 26.9891 9.429 26.8394C9.42198 25.6379 9.42783 24.4364 9.42432 23.2349C9.42393 23.0579 9.44186 22.8833 9.475 22.7133C9.89097 20.5875 11.9041 19.5212 13.7559 19.989C15.3461 20.3906 16.3663 21.7246 16.3675 23.3639C16.3687 24.5202 16.3698 25.6761 16.3652 26.8324C16.3648 26.9642 16.3765 27.0199 16.5367 27.0191C18.5565 27.0121 20.5767 27.0129 22.5965 27.018C22.7403 27.018 22.7606 26.9728 22.7606 26.8437C22.7567 24.2391 22.7571 21.6346 22.7606 19.03C22.7606 18.9119 22.7228 18.8483 22.6234 18.784C21.3431 17.9556 20.0691 17.1174 18.7861 16.2929C18.5467 16.1389 18.4446 15.9557 18.4466 15.6715C18.4559 14.3596 18.4493 13.0474 18.454 11.7356C18.4544 11.6151 18.4197 11.5301 18.3351 11.4459C16.5597 9.6764 14.7863 7.90494 13.0156 6.13035C12.9232 6.03796 12.8772 6.04459 12.7887 6.13347C11.0211 7.90221 9.25123 9.66822 7.4782 11.4315C7.38269 11.5266 7.34644 11.621 7.34683 11.7547C7.3515 13.0603 7.34605 14.3655 7.35189 15.6711C7.35306 15.9428 7.25638 16.1292 7.02208 16.2796C5.74533 17.1014 4.47794 17.9369 3.20275 18.761C3.07254 18.8452 3.0242 18.9322 3.02498 19.0869C3.03122 20.373 3.02849 21.6591 3.02849 22.9449H3.02771ZM12.8959 27.0141C13.6557 27.0141 14.4159 27.0098 15.1757 27.018C15.32 27.0195 15.3566 26.9864 15.3558 26.839C15.3488 25.7089 15.3519 24.5787 15.3519 23.4485C15.3519 23.2735 15.3445 23.1 15.3173 22.9254C15.1184 21.6533 13.922 20.6619 12.4624 20.9118C11.2632 21.1173 10.4531 22.1125 10.4434 23.3324C10.434 24.5078 10.4426 25.6835 10.4368 26.8593C10.436 26.9883 10.4722 27.018 10.597 27.0172C11.3634 27.0114 12.1299 27.0141 12.8963 27.0141H12.8959Z" fill="#0F0E5B"/>
<path d="M16.9983 13.6274C16.9893 14.4309 16.7554 14.9915 16.2911 15.4593C15.3126 16.4456 14.3372 17.4347 13.3606 18.4229C13.0355 18.7519 12.7988 18.7543 12.471 18.4264C11.4698 17.4261 10.4601 16.4339 9.47226 15.4211C8.87112 14.8047 8.66333 14.0406 8.868 13.2103C9.08592 12.3261 9.66134 11.7351 10.5584 11.5273C11.4051 11.3308 12.1447 11.5877 12.7524 12.2002C12.8858 12.3343 12.9439 12.344 13.0784 12.1998C14.1801 11.0166 16.0689 11.3148 16.771 12.7432C16.9304 13.0672 17.01 13.4103 16.9983 13.6282V13.6274ZM16.0221 13.7175C15.9999 13.2512 15.7816 12.8364 15.3055 12.5931C14.8085 12.339 14.3352 12.4232 13.9122 12.769C13.7021 12.9409 13.5142 13.1405 13.3208 13.3323C13.023 13.6286 12.8031 13.6301 12.5064 13.3389C12.2889 13.1257 12.0893 12.8914 11.8394 12.7144C11.4675 12.4505 11.0617 12.3651 10.6258 12.5343C9.71124 12.8894 9.48903 14.0348 10.204 14.765C11.0663 15.646 11.9447 16.5115 12.8133 17.3867C12.8889 17.4631 12.9302 17.4701 13.0101 17.389C13.8612 16.524 14.7188 15.6655 15.5699 14.8005C15.8467 14.519 16.019 14.1841 16.0225 13.7171L16.0221 13.7175Z" fill="#0F0E5B"/>
<path d="M16.0221 13.7175C16.0186 14.1846 15.8463 14.5194 15.5695 14.8009C14.7184 15.666 13.8608 16.5248 13.0097 17.3895C12.9298 17.4706 12.8889 17.4636 12.8129 17.3872C11.9447 16.5119 11.0664 15.6465 10.2036 14.7654C9.48865 14.0352 9.71086 12.8899 10.6254 12.5347C11.0613 12.3655 11.4671 12.4509 11.839 12.7148C12.0889 12.8922 12.2885 13.1261 12.5061 13.3394C12.8027 13.6306 13.0226 13.6286 13.3205 13.3327C13.5134 13.1409 13.7017 12.9413 13.9119 12.7694C14.3348 12.4236 14.8081 12.3394 15.3052 12.5936C15.7812 12.8372 15.9999 13.2517 16.0217 13.7179L16.0221 13.7175Z" fill="#09CFAF"/>
</svg>
