<svg width="28" height="24" viewBox="0 0 28 24" fill="none" xmlns="http://www.w3.org/2000/svg">
<g clip-path="url(#clip0_12937_28319)">
<path d="M23.6499 9.45624C24.3161 9.45824 24.9826 9.46303 25.6488 9.46064C25.8867 9.45984 26.0539 9.5558 26.1574 9.77053C26.746 10.9901 27.337 12.2085 27.9252 13.4285C28.0552 13.698 28.0132 13.9523 27.8213 14.093C27.7337 14.157 27.6365 14.1854 27.5246 14.1834C27.1647 14.1782 26.8048 14.1902 26.4453 14.177C26.2858 14.171 26.2522 14.2198 26.2526 14.3734C26.2578 16.8253 26.2562 19.2773 26.2562 21.7292C26.2562 22.1691 26.2578 22.6089 26.2562 23.0484C26.2546 23.3763 26.0543 23.5762 25.7272 23.5762C17.9179 23.5762 10.1089 23.5762 2.29961 23.5762C1.94093 23.5762 1.7466 23.3807 1.7466 23.0204C1.7466 20.1418 1.745 17.2636 1.7502 14.3849C1.7502 14.225 1.72301 14.1682 1.54907 14.1762C1.20318 14.1922 0.853705 14.1554 0.510622 14.1882C0.157543 14.2222 -0.127559 13.8467 0.0583772 13.4825C0.373469 12.8651 0.66217 12.2341 0.961667 11.6087C1.24997 11.0073 1.54187 10.4079 1.82377 9.80332C1.93533 9.5638 2.10528 9.45464 2.37078 9.45904C2.87021 9.46743 3.37004 9.46144 3.89746 9.46144C3.68313 9.18273 3.47481 8.92322 3.27887 8.65491C2.42517 7.48611 1.66503 6.26533 1.21278 4.87621C0.966066 4.11887 0.83691 3.34273 0.913684 2.5498C1.02844 1.36581 1.60385 0.331365 2.96778 0.0498618C3.28487 -0.0157157 3.60276 -0.00371979 3.92905 0.0138742C5.63487 0.106243 6.998 0.95875 8.26356 1.982C10.6687 3.92693 12.4281 6.3481 13.4558 9.2799C13.4994 9.40425 13.5557 9.43984 13.6789 9.43824C14.2179 9.43304 14.7573 9.43584 15.3 9.43584C15.3147 9.38546 15.2596 9.36667 15.2304 9.33708C14.2867 8.387 13.3422 7.43773 12.3969 6.48885C11.8323 5.92185 11.4605 5.24128 11.3489 4.45595C11.0942 2.65977 12.1766 0.706437 14.1028 0.254192C15.4455 -0.0609002 16.6295 0.277384 17.6507 1.19827C17.7883 1.32223 17.9227 1.44978 18.0638 1.58054C18.4021 1.18067 18.7916 0.808002 19.2866 0.575282C20.7125 -0.0948885 22.094 -0.0521033 23.3592 0.939157C24.1633 1.56894 24.6264 2.42705 24.7383 3.4507C24.8719 4.67268 24.4808 5.70312 23.5991 6.56603C22.6706 7.47452 21.7669 8.4082 20.8536 9.33228C20.8249 9.36147 20.7649 9.37786 20.7913 9.44064C20.86 9.44264 20.9292 9.44664 20.998 9.44704C21.8817 9.45024 22.7654 9.45304 23.6491 9.45584L23.6499 9.45624ZM17.5412 12.3452C17.3017 12.8459 17.0705 13.2977 16.869 13.7624C16.7355 14.0703 16.5419 14.1914 16.1968 14.1906C11.7604 14.1798 7.32349 14.1826 2.88701 14.1794C2.76465 14.1794 2.70227 14.1838 2.70267 14.3414C2.70867 17.0524 2.70827 19.7639 2.70347 22.475C2.70347 22.6201 2.74626 22.6457 2.88061 22.6441C3.91306 22.6333 4.9455 22.6253 5.97795 22.6261C9.76145 22.6289 13.5454 22.6345 17.3289 22.6449C17.496 22.6453 17.5468 22.6169 17.5464 22.435C17.5392 19.4972 17.5412 16.5594 17.5412 13.6216C17.5412 13.2106 17.5412 12.7995 17.5412 12.3448V12.3452ZM18.5292 11.7323L18.5005 11.7307C18.5005 11.7678 18.5005 11.805 18.5005 11.8422C18.5045 15.3862 18.5101 18.9306 18.5093 22.4746C18.5093 22.6249 18.5608 22.6425 18.6896 22.6421C20.8345 22.6329 22.9797 22.6269 25.125 22.6265C25.2649 22.6265 25.2981 22.5913 25.2981 22.4522C25.2937 19.7539 25.2933 17.056 25.2989 14.3578C25.2989 14.201 25.2529 14.1774 25.111 14.1778C23.4256 14.183 21.7401 14.1786 20.0547 14.1838C19.7956 14.1846 19.6309 14.0791 19.5233 13.8479C19.1954 13.141 18.8611 12.4372 18.5296 11.7323H18.5292ZM18.5061 6.68079C19.0487 6.42208 19.283 6.01182 19.2886 5.468C19.2966 4.73546 19.287 4.00251 19.2918 3.26996C19.2938 2.94567 19.4841 2.74694 19.7704 2.74774C20.0543 2.74854 20.2531 2.95726 20.2543 3.26876C20.2567 4.0149 20.2686 4.76145 20.2503 5.50679C20.2319 6.24694 19.926 6.85313 19.3246 7.30218C19.1522 7.43053 18.9935 7.57048 18.7636 7.59168C18.564 7.61007 18.5041 7.72803 18.516 7.93196C18.5372 8.29024 18.5228 8.65091 18.5236 9.01079C18.5242 9.29069 18.6609 9.43065 18.9339 9.43065C19.0071 9.43065 19.0819 9.42105 19.1534 9.43264C19.3378 9.46263 19.4613 9.38146 19.5873 9.25431C20.7201 8.1075 21.8645 6.97229 22.9937 5.82188C23.7774 5.02336 23.9898 4.06329 23.6667 3.00445C23.1125 1.18827 20.9388 0.520501 19.3574 1.66371C19.0415 1.89203 18.7956 2.19233 18.5224 2.46503C18.1674 2.81931 17.8655 2.81931 17.5136 2.45664C17.2865 2.22272 17.0785 1.9708 16.8214 1.76607C15.6094 0.800404 13.974 0.87158 12.9448 2.07397C12.0535 3.11561 12.0447 4.85142 13.1807 5.94344C14.1983 6.92191 15.1836 7.93476 16.1777 8.93721C16.6823 9.44624 16.6771 9.44744 17.3948 9.43424C17.5252 9.43185 17.5472 9.38706 17.5456 9.2723C17.54 8.79286 17.5384 8.31303 17.5456 7.83359C17.5472 7.71843 17.5084 7.68285 17.4016 7.64566C16.5199 7.33776 15.9333 6.74797 15.8206 5.80149C15.7182 4.94178 15.7874 4.07248 15.7934 3.20718C15.7954 2.93807 15.9633 2.77493 16.1796 2.74214C16.5083 2.69216 16.7455 2.89169 16.7487 3.24157C16.7555 3.96772 16.7507 4.69387 16.7539 5.41962C16.7543 5.53238 16.7599 5.64754 16.7834 5.7571C16.8754 6.18416 17.1101 6.49685 17.5452 6.68719C17.5452 6.58242 17.5452 6.51045 17.5452 6.43847C17.5452 5.62595 17.5452 4.81303 17.5464 4.00051C17.5464 3.89414 17.5416 3.78818 17.5764 3.68422C17.6511 3.46149 17.8543 3.32554 18.0834 3.35073C18.2917 3.37352 18.4761 3.55706 18.4997 3.77219C18.5089 3.85776 18.5065 3.94493 18.5069 4.0317C18.5073 4.903 18.5069 5.7739 18.5069 6.68159L18.5061 6.68079ZM12.4533 9.43424C12.2706 8.81486 12.0027 8.24985 11.728 7.68684C11.656 7.53969 11.6032 7.5133 11.4577 7.60567C10.9019 7.95835 10.354 8.31903 9.86342 8.76128C9.67708 8.92922 9.47955 8.94401 9.27842 8.82485C9.09168 8.71409 9.00571 8.50056 9.06329 8.27224C9.10808 8.0951 9.23803 7.97834 9.37158 7.86758C9.88821 7.43853 10.4416 7.06146 11.0238 6.72757C11.1354 6.66359 11.1502 6.61601 11.0766 6.50725C10.7831 6.0722 10.4792 5.64514 10.1577 5.23009C10.0997 5.15531 10.0542 5.12812 9.96298 5.1845C9.78264 5.29526 9.59271 5.39003 9.41037 5.49759C8.90015 5.79749 8.41471 6.13218 7.97206 6.52804C7.75014 6.72677 7.45944 6.71518 7.2767 6.51924C7.08237 6.31132 7.09876 6.02621 7.32269 5.81029C7.40866 5.72752 7.50223 5.65194 7.59499 5.57637C8.1608 5.11573 8.77539 4.72746 9.41717 4.36558C8.97892 3.91654 8.55027 3.47109 8.07163 3.07482C7.93288 2.96006 7.84491 2.96526 7.70256 3.04523C7.06358 3.40511 6.46778 3.82337 5.91997 4.3108C5.72164 4.48714 5.43453 4.48194 5.2542 4.3056C5.06146 4.11687 5.05466 3.83576 5.2462 3.62704C5.32697 3.53907 5.41894 3.46109 5.50971 3.38272C5.98834 2.96926 6.50857 2.61458 7.05598 2.2863C6.72249 2.04998 6.37941 1.83645 6.02273 1.64771C5.2426 1.23506 4.42848 0.933559 3.52839 0.950753C2.63949 0.967547 2.05969 1.47657 1.90374 2.33708C1.76339 3.11281 1.88735 3.86056 2.12967 4.58991C2.73106 6.39888 3.82549 7.90637 5.06386 9.32308C5.15383 9.42625 5.2474 9.46743 5.38775 9.46583C6.62013 9.45024 7.85291 9.44024 9.08528 9.43504C10.2045 9.43025 11.3233 9.43424 12.4533 9.43424ZM1.22118 13.2521C1.26316 13.2565 1.27636 13.2593 1.28956 13.2593C6.17948 13.2593 11.0698 13.2593 15.9597 13.2629C16.0817 13.2629 16.1333 13.2177 16.1793 13.1154C16.4056 12.6092 16.6415 12.1073 16.8678 11.6015C17.0438 11.2092 17.2109 10.813 17.3808 10.4207C17.3504 10.4047 17.3444 10.3991 17.3385 10.3991C12.4753 10.4067 7.61179 10.4155 2.74865 10.4203C2.6251 10.4203 2.55992 10.4563 2.50714 10.5691C2.29081 11.0325 2.06409 11.4915 1.84257 11.9526C1.63704 12.38 1.43311 12.8079 1.22078 13.2521H1.22118ZM26.7564 13.2597C26.7228 13.1782 26.7052 13.129 26.6828 13.0822C26.2862 12.2545 25.8863 11.4284 25.4953 10.5978C25.4333 10.4667 25.3641 10.4195 25.2142 10.4199C23.1824 10.4259 21.1507 10.4235 19.1194 10.4231C19.0639 10.4231 19.0083 10.4231 18.9403 10.4231C19.365 11.3308 19.7816 12.2137 20.1891 13.101C20.2487 13.2309 20.3234 13.2629 20.4582 13.2625C22.4831 13.2581 24.508 13.2597 26.5329 13.2597C26.5985 13.2597 26.6637 13.2597 26.7564 13.2597Z" fill="#0F0E5B"/>
<path d="M23.6499 9.45624C22.7662 9.45344 21.8825 9.45064 20.9988 9.44744C20.9296 9.44744 20.8608 9.44304 20.7921 9.44105C20.9828 9.40506 21.1751 9.42505 21.3659 9.42665C22.1272 9.43305 22.8885 9.44584 23.6499 9.45624Z" fill="#09CFAF"/>
<path d="M18.5061 6.6808C18.5061 5.77311 18.5061 4.90221 18.5061 4.03091C18.5061 3.94454 18.5085 3.85737 18.4989 3.77139C18.4753 3.55627 18.291 3.37273 18.0826 3.34994C17.8531 3.32475 17.65 3.4607 17.5756 3.68342C17.5408 3.78739 17.5456 3.89375 17.5456 3.99972C17.5448 4.81224 17.5448 5.62516 17.5444 6.43768C17.5444 6.50966 17.5444 6.58163 17.5444 6.6864C17.1098 6.49606 16.8746 6.18337 16.7827 5.75631C16.7591 5.64675 16.7539 5.53159 16.7531 5.41883C16.7499 4.69268 16.7547 3.96653 16.7479 3.24078C16.7447 2.8913 16.5072 2.69176 16.1789 2.74135C15.9622 2.77414 15.7942 2.93728 15.7926 3.20639C15.7866 4.07129 15.7174 4.94059 15.8198 5.8007C15.9326 6.74757 16.5192 7.33697 17.4009 7.64487C17.5076 7.68205 17.5464 7.71804 17.5448 7.8328C17.538 8.31224 17.5396 8.79207 17.5448 9.27151C17.546 9.38627 17.5244 9.43105 17.3941 9.43345C16.6763 9.44665 16.6815 9.44545 16.1769 8.93642C15.1828 7.93357 14.1976 6.92111 13.1799 5.94265C12.0439 4.85062 12.0527 3.11482 12.944 2.07318C13.9732 0.870389 15.6087 0.799614 16.8207 1.76528C17.0778 1.97001 17.2857 2.22193 17.5128 2.45585C17.8647 2.81852 18.1666 2.81852 18.5217 2.46424C18.7948 2.19194 19.0407 1.89124 19.3566 1.66292C20.938 0.51971 23.1117 1.18788 23.6659 3.00366C23.989 4.06249 23.7767 5.02257 22.9929 5.82109C21.8641 6.9719 20.7197 8.10711 19.5865 9.25352C19.461 9.38067 19.337 9.46184 19.1527 9.43185C19.0811 9.42026 19.0063 9.42985 18.9331 9.42985C18.6602 9.42985 18.5234 9.2899 18.5229 9.01C18.5221 8.65012 18.5369 8.28985 18.5153 7.93117C18.5033 7.72724 18.5633 7.60968 18.7628 7.59089C18.9927 7.56969 19.1515 7.42974 19.3238 7.30138C19.9252 6.85234 20.2311 6.24655 20.2495 5.506C20.2679 4.76026 20.2559 4.01411 20.2535 3.26797C20.2523 2.95647 20.0536 2.74775 19.7696 2.74695C19.4833 2.74615 19.293 2.94488 19.291 3.26917C19.2862 4.00172 19.2958 4.73466 19.2878 5.46721C19.2818 6.01103 19.0475 6.42129 18.5053 6.68L18.5061 6.6808Z" fill="#09CFAF"/>
</g>
<defs>
<clipPath id="clip0_12937_28319">
<rect width="28" height="23.5767" fill="white"/>
</clipPath>
</defs>
</svg>
