<svg width="25" height="28" viewBox="0 0 25 28" fill="none" xmlns="http://www.w3.org/2000/svg">
<g clip-path="url(#clip0_12937_28290)">
<path d="M13.3988 21.2949C14.1436 21.2949 14.8883 21.2949 15.633 21.2949C15.6867 21.2949 15.7497 21.2808 15.7929 21.3034C16.0791 21.4539 16.2498 21.2917 16.4403 21.104C17.4991 20.0613 18.5692 19.0304 19.6304 17.9902C19.9997 17.6281 20.4102 17.3775 20.9487 17.4223C21.3649 17.457 21.714 17.6188 21.9187 18.0027C21.9748 18.1081 22.0236 18.0964 22.1084 18.056C22.4563 17.8901 22.8099 17.7609 23.2083 17.8518C23.8635 18.0011 24.2994 18.5351 24.3454 19.208C24.3753 19.6432 24.2187 19.9891 23.9414 20.3023C22.6053 21.8116 21.2752 23.3261 19.9327 24.8297C19.4217 25.402 18.7775 25.8041 18.0977 26.1456C17.0018 26.6957 15.8918 27.2164 14.728 27.6092C13.8582 27.9026 12.9625 27.9026 12.066 27.7642C10.9709 27.5951 9.87819 27.4094 8.78429 27.2289C8.08517 27.1139 7.38686 26.992 6.68693 26.8802C6.35069 26.8265 6.01243 26.7874 5.67457 26.7466C5.279 26.6986 4.92217 26.8128 4.59077 27.0211C4.43214 27.1204 4.27633 27.2241 4.11648 27.3214C3.98489 27.4013 3.89044 27.4889 3.83958 27.6544C3.72575 28.0237 3.28375 28.115 3.01613 27.8401C1.73697 26.5246 0.752462 25.0161 0.0654497 23.3139C0.0222591 23.207 -0.00478543 23.1004 0.000865669 22.9834C0.0210482 22.5652 0.393617 22.3391 0.761746 22.5369C0.865081 22.5926 0.923206 22.5757 1.00878 22.5179C2.01225 21.8398 3.01411 21.1593 4.02445 20.4916C4.79583 19.9822 5.64067 19.799 6.56664 19.9075C7.28029 19.9911 7.94511 20.1768 8.56027 20.553C9.16938 20.9255 9.84428 21.1044 10.5519 21.1681C10.6084 21.1734 10.6661 21.1689 10.7392 21.1689C10.1075 20.5344 9.48422 19.9164 8.87027 19.2887C8.55704 18.9682 8.20909 18.6804 7.97578 18.2845C7.20077 16.9674 7.76911 15.0205 9.45799 14.6197C10.3577 14.4062 11.1335 14.6613 11.7963 15.295C11.9049 15.3988 11.9889 15.5994 12.1257 15.5832C12.2407 15.5695 12.336 15.3919 12.441 15.2882C12.9512 14.784 13.5558 14.5107 14.2816 14.5555C14.657 14.579 14.9997 14.6883 15.3392 14.8777C15.9644 15.226 16.3479 15.7298 16.5174 16.4095C16.7217 17.2305 16.5251 17.9745 15.9886 18.6033C15.3735 19.3247 14.6526 19.9471 13.9926 20.6281C13.7928 20.8339 13.5845 21.0317 13.3803 21.2331C13.3863 21.2537 13.3928 21.2743 13.3988 21.2949ZM12.42 24.6541C12.42 24.6654 12.42 24.6767 12.42 24.6884C11.4581 24.6884 10.4966 24.69 9.53468 24.6876C9.20005 24.6868 8.94979 24.4757 8.95302 24.177C8.95584 23.9041 9.11327 23.6203 9.4923 23.6235C9.65376 23.6248 9.81481 23.6175 9.97627 23.6171C11.6845 23.6122 13.3928 23.607 15.101 23.6042C15.2847 23.6042 15.4582 23.5812 15.6181 23.4786C15.9039 23.295 16.0552 22.9708 15.9773 22.6911C15.9015 22.4166 15.6564 22.2665 15.2851 22.2669C14.7066 22.2669 14.1282 22.2717 13.5498 22.2669C12.4757 22.2572 11.4004 22.3097 10.3291 22.1886C9.54679 22.1002 8.80286 21.8931 8.11343 21.5064C7.62138 21.2303 7.11359 21.0168 6.54 20.9574C5.88043 20.8892 5.24428 20.9445 4.68523 21.3078C3.58528 22.0227 2.50632 22.7698 1.41687 23.5008C1.33937 23.5529 1.33009 23.5917 1.37166 23.6772C1.8625 24.6864 2.46111 25.6248 3.18324 26.4854C3.2668 26.5851 3.31645 26.567 3.40687 26.5109C3.69063 26.3349 3.97722 26.1625 4.26866 25.9998C4.78977 25.7088 5.34641 25.6265 5.93573 25.7245C6.28974 25.7835 6.64616 25.8331 7.00056 25.884C7.44458 25.9474 7.889 26.0128 8.33099 26.0886C8.9514 26.1956 9.57424 26.2868 10.1922 26.4087C10.832 26.5347 11.4774 26.6311 12.1225 26.7288C12.8846 26.8443 13.6455 26.8645 14.3914 26.6247C15.4469 26.286 16.4294 25.7758 17.4333 25.3169C18.1934 24.9693 18.8513 24.4914 19.4039 23.8593C20.2306 22.9131 21.0762 21.9831 21.9078 21.041C22.3433 20.5477 22.7958 20.0686 23.2003 19.5487C23.3557 19.3493 23.3545 19.1414 23.2099 18.9812C23.0763 18.833 22.8749 18.8145 22.6598 18.9368C22.5072 19.0231 22.3724 19.1337 22.2468 19.2561C21.1727 20.3023 20.0926 21.3425 19.0261 22.396C18.3577 23.0564 17.6533 23.653 16.7334 23.9344C16.6922 23.9469 16.6543 23.9739 16.6212 24.0127C16.2442 24.453 15.7485 24.6456 15.1834 24.652C14.2622 24.6629 13.3411 24.6549 12.42 24.6549V24.6541ZM15.5491 16.9855C15.5253 16.4115 15.2988 15.9566 14.7515 15.7193C14.2154 15.4868 13.7129 15.5639 13.2753 15.9598C13.0162 16.1944 12.7683 16.441 12.5168 16.6832C12.229 16.9601 12.0034 16.9605 11.716 16.6844C11.4544 16.4329 11.2018 16.1705 10.9265 15.9352C10.4942 15.5655 10.0001 15.4936 9.47978 15.7249C8.95302 15.9586 8.71567 16.3958 8.68056 16.9544C8.64907 17.4586 8.89368 17.8437 9.23033 18.1827C10.1539 19.1128 11.0815 20.0391 12.0026 20.9712C12.0946 21.0644 12.1382 21.0515 12.2218 20.9659C12.5879 20.5905 12.9657 20.2272 13.3318 19.8518C13.9324 19.2363 14.5706 18.6574 15.1353 18.0072C15.388 17.7161 15.5612 17.3884 15.5491 16.9855ZM17.0519 22.6645C17.2872 22.5414 17.5144 22.4082 17.709 22.2184C18.3774 21.5669 19.0548 20.9239 19.7236 20.2724C20.1616 19.8458 20.5915 19.4111 21.0238 18.9787C21.1178 18.8847 21.1949 18.7814 21.0989 18.6449C21.0016 18.5065 20.872 18.4374 20.7009 18.4871C20.6092 18.5137 20.535 18.5719 20.4663 18.6377C19.2905 19.7695 18.1143 20.9013 16.9372 22.0324C16.8908 22.0772 16.8654 22.1086 16.8969 22.1849C16.9602 22.3379 17.0006 22.5002 17.0523 22.6645H17.0519Z" fill="#0F0E5B"/>
<path d="M12.0898 5.92682C13.002 5.91915 13.7993 6.24126 14.4596 6.85239C15.2932 7.62376 16.096 8.43227 16.8291 9.29851C17.7651 10.4045 17.6634 12.1115 16.6401 13.0726C16.069 13.6091 15.361 13.7653 14.5969 13.7302C14.1448 13.7096 13.7088 13.6034 13.2862 13.4601C12.4591 13.1796 11.647 13.2252 10.8284 13.4912C10.2722 13.6721 9.70624 13.7669 9.11086 13.7189C7.96732 13.6264 7.05951 12.8417 6.82055 11.7026C6.60298 10.6653 6.915 9.78168 7.61776 9.02927C8.27369 8.32692 8.95061 7.64394 9.63359 6.96743C10.208 6.39828 10.8914 6.0249 11.7067 5.92884C11.8327 5.9139 11.9618 5.92682 12.0894 5.92682H12.0898ZM12.0737 6.96823C11.4387 6.94886 10.899 7.22738 10.4373 7.66009C9.73531 8.31764 9.07534 9.01716 8.41295 9.71467C8.08034 10.065 7.85551 10.4683 7.80868 10.9527C7.72311 11.8326 8.33101 12.6508 9.24891 12.6997C9.71028 12.7239 10.1503 12.6226 10.5814 12.476C11.3644 12.21 12.1604 12.1333 12.975 12.2964C13.4784 12.3973 13.9502 12.6193 14.4629 12.6839C15.3214 12.7921 16.0625 12.4833 16.3326 11.605C16.5336 10.9506 16.3705 10.3379 15.9132 9.83011C15.2294 9.07044 14.5157 8.33742 13.7662 7.64273C13.3024 7.21285 12.7486 6.95693 12.0741 6.96823H12.0737Z" fill="#0F0E5B"/>
<path d="M7.66779 2.6472C7.6698 1.95252 7.77193 1.39468 8.07345 0.886883C8.71284 -0.190863 9.90159 -0.298234 10.7408 0.632987C11.2934 1.24613 11.5945 1.96786 11.6797 2.79736C11.7301 3.28658 11.7208 3.75562 11.5452 4.21175C11.2918 4.87051 10.8534 5.36619 10.1309 5.4667C9.38289 5.57124 8.76692 5.26729 8.3112 4.66263C7.83691 4.03374 7.69079 3.30233 7.66779 2.6472ZM8.71687 2.58342C8.74795 3.07588 8.83676 3.56551 9.14272 3.98934C9.34011 4.26261 9.59804 4.43981 9.9472 4.37926C10.2935 4.31912 10.48 4.06765 10.5761 3.74715C10.7331 3.22361 10.654 2.7138 10.4647 2.21489C10.3206 1.83546 10.1369 1.47944 9.79179 1.23967C9.49915 1.03623 9.25413 1.08023 9.05069 1.36803C8.79639 1.72809 8.7423 2.14385 8.71687 2.58383V2.58342Z" fill="#0F0E5B"/>
<path d="M16.5513 2.75975C16.5207 3.34787 16.3685 4.08937 15.876 4.71947C15.4122 5.31324 14.7838 5.58086 14.0523 5.46017C13.3189 5.33907 12.8826 4.81877 12.6452 4.14064C12.4147 3.48147 12.4515 2.81182 12.6404 2.14701C12.8164 1.527 13.1102 0.97521 13.5748 0.519489C14.3785 -0.26884 15.4813 -0.133213 16.0867 0.812943C16.387 1.28198 16.5501 1.90441 16.5513 2.75975ZM13.5603 3.15976C13.5558 3.31598 13.5772 3.46735 13.6031 3.61993C13.666 3.98684 13.9236 4.32066 14.2307 4.37677C14.6017 4.44458 14.8931 4.28312 15.0901 3.9816C15.5886 3.21749 15.6165 2.40857 15.279 1.57463C15.072 1.06361 14.6578 0.969963 14.2715 1.36271C13.7831 1.8588 13.5861 2.4776 13.5607 3.15936L13.5603 3.15976Z" fill="#0F0E5B"/>
<path d="M16.1715 6.53876C16.1634 5.25071 17.4131 3.82663 18.5663 3.63692C19.3087 3.51461 20.0122 3.93441 20.2193 4.72395C20.4635 5.65597 20.1943 6.49557 19.6647 7.26048C19.3006 7.78604 18.8287 8.18363 18.1764 8.30594C17.2989 8.47063 16.4363 7.90431 16.2272 7.03565C16.1876 6.87137 16.1727 6.70587 16.1719 6.53835L16.1715 6.53876ZM17.2363 6.45439C17.2363 6.81041 17.3776 7.0635 17.6153 7.185C17.8729 7.31659 18.132 7.28874 18.3464 7.10912C18.9603 6.59567 19.305 5.95185 19.2146 5.12921C19.1718 4.73929 18.9333 4.60891 18.5591 4.74736C18.2632 4.85675 18.0246 5.04808 17.8204 5.28179C17.508 5.63943 17.2722 6.03581 17.2359 6.45439H17.2363Z" fill="#0F0E5B"/>
<path d="M8.04519 6.36033C8.04519 7.59873 7.24798 8.39756 6.26389 8.33741C5.66568 8.30108 5.17807 8.00924 4.78854 7.56725C4.20204 6.90163 3.88316 6.1238 3.9211 5.2281C3.94653 4.62625 4.13221 4.07608 4.70983 3.78706C5.22328 3.52994 5.76174 3.56385 6.26389 3.84842C7.32549 4.45026 7.93984 5.3504 8.0456 6.36033H8.04519ZM6.34744 7.25563C6.7297 7.26007 7.05948 6.83987 6.97189 6.39908C6.87945 5.93287 6.64372 5.54254 6.32282 5.19984C6.13351 4.99761 5.92119 4.82485 5.65437 4.73322C5.29513 4.61011 5.0598 4.74775 5.00813 5.12194C4.90278 5.88806 5.20753 6.50242 5.74318 7.01949C5.89333 7.1644 6.08144 7.25684 6.34704 7.25563H6.34744Z" fill="#0F0E5B"/>
<path d="M15.5491 16.9857C15.5608 17.3885 15.388 17.7163 15.1353 18.0073C14.5706 18.6576 13.9324 19.2364 13.3318 19.852C12.9657 20.2274 12.5879 20.5907 12.2218 20.9661C12.1378 21.0521 12.0946 21.0646 12.0026 20.9713C11.0815 20.0389 10.1539 19.1129 9.23033 18.1829C8.89368 17.8438 8.64907 17.4588 8.68055 16.9546C8.71567 16.396 8.95302 15.9588 9.47978 15.7251C10.0001 15.4942 10.4942 15.5656 10.9265 15.9354C11.2018 16.1707 11.4544 16.4331 11.716 16.6846C12.003 16.9607 12.229 16.9603 12.5168 16.6834C12.7687 16.4412 13.0166 16.1941 13.2753 15.96C13.7129 15.5636 14.2154 15.4869 14.7515 15.7194C15.2988 15.9568 15.5257 16.4117 15.5491 16.9857Z" fill="#09CFAF"/>
</g>
<defs>
<clipPath id="clip0_12937_28290">
<rect width="24.3486" height="28" fill="white"/>
</clipPath>
</defs>
</svg>
