<svg width="30" height="28" viewBox="0 0 30 28" fill="none" xmlns="http://www.w3.org/2000/svg">
<path d="M17.6912 22.5294C16.7671 23.1611 15.7732 23.6628 14.8035 24.207C14.4656 24.3965 14.1737 24.404 13.829 24.2194C12.4755 23.4942 11.1272 22.7627 9.88577 21.8521C9.61551 21.654 9.35348 21.4439 9.09256 21.2334C9.01556 21.1714 8.97369 21.1676 8.89856 21.2435C7.48558 22.6662 6.06962 24.0867 4.64991 25.503C4.55983 25.5927 4.60393 25.6447 4.64804 25.7224C5.14258 26.5889 4.73477 27.6471 3.79465 27.9282C3.25151 28.0905 2.75623 27.978 2.35065 27.5873C1.69163 26.9522 1.04421 26.3044 0.405752 25.6484C-0.0252431 25.2055 -0.117946 24.499 0.15194 23.954C0.42033 23.4123 1.00571 23.0785 1.61986 23.1372C1.84302 23.1585 2.07142 23.1929 2.24486 23.3697C2.35327 23.4804 2.44447 23.4718 2.56559 23.3495C3.96062 21.9433 5.36126 20.5434 6.76526 19.1461C6.85946 19.0523 6.86283 19.0026 6.78283 18.8953C5.83636 17.6281 5.25959 16.1938 4.88578 14.6679C4.66225 13.7544 4.51908 12.8292 4.43535 11.8928C4.30938 10.4843 4.32657 9.07249 4.32807 7.66101C4.32807 7.54027 4.29368 7.45579 4.2077 7.37056C2.99396 6.16206 1.78322 4.95056 0.572842 3.73869C-0.180745 2.98436 -0.184857 1.90407 0.561254 1.14861C0.771331 0.935917 0.982904 0.724718 1.19635 0.515388C1.93199 -0.206425 3.03434 -0.146617 3.73335 0.548283C5.07194 1.87865 6.39968 3.21948 7.72856 4.55956C7.81789 4.64965 7.88929 4.67058 8.01825 4.6418C10.1456 4.16744 12.0725 3.27331 13.7827 1.9179C14.149 1.62745 14.389 1.63044 14.7661 1.92537C16.5103 3.28901 18.4855 4.15212 20.633 4.64629C20.7436 4.67171 20.8027 4.64591 20.8748 4.57302C22.1596 3.27742 23.4481 1.98518 24.7329 0.688833C25.073 0.345682 25.4536 0.0918695 25.9459 0.0242111C26.4273 -0.0419521 26.8613 0.0701889 27.2388 0.363251C27.5883 0.634632 27.9008 0.952738 28.1853 1.28953C28.7942 2.00985 28.7404 3.03146 28.0724 3.70243C26.8553 4.92514 25.6345 6.14412 24.4114 7.36084C24.3067 7.46514 24.263 7.56831 24.2619 7.71745C24.2548 8.83811 24.2697 9.9599 24.2065 11.0794C24.152 12.0528 24.06 13.0228 23.8832 13.9828C23.8664 14.074 23.8514 14.1656 23.8372 14.2575C23.8002 14.4971 23.801 14.496 24.0503 14.5326C26.4486 14.8844 28.4144 16.682 28.9086 19.1248C29.0656 19.9012 29.0626 20.6791 28.894 21.47C28.3987 23.7906 26.9996 25.2929 24.7695 25.974C22.8777 26.5515 21.1189 26.1246 19.5441 24.9498C18.752 24.3588 18.1745 23.5899 17.7723 22.6883C17.7495 22.6374 17.7211 22.5892 17.6904 22.5301L17.6912 22.5294ZM25.3119 24.6866C25.6337 24.515 25.9466 24.3308 26.2572 24.065C26.0479 24.0781 25.889 24.0541 25.7305 24.0298C25.593 24.0089 25.5044 24.0407 25.4625 24.1925C25.4188 24.3513 25.3463 24.5023 25.2861 24.6567C25.2681 24.6631 25.2543 24.6758 25.2685 24.6922C25.2738 24.6982 25.2969 24.6889 25.3119 24.6866ZM23.2743 8.41646C23.2743 7.65652 23.2732 6.89658 23.2758 6.13701C23.2758 6.03908 23.2739 5.9789 23.1427 5.9759C22.4426 5.95834 21.7488 5.86974 21.0599 5.75087C20.2259 5.60696 19.4054 5.40548 18.6032 5.13186C17.0759 4.61115 15.6588 3.88597 14.3901 2.88231C14.3038 2.8139 14.2503 2.80605 14.161 2.88381C13.9927 3.03034 13.8122 3.16341 13.6302 3.29275C11.196 5.02084 8.45411 5.81928 5.50144 5.97478C5.36388 5.98189 5.32762 6.01104 5.32986 6.15084C5.35378 7.71072 5.29659 9.27135 5.37509 10.8305C5.3949 11.2245 5.40799 11.6188 5.44798 12.0121C5.52611 12.781 5.65395 13.5398 5.81954 14.2949C6.38212 16.8577 7.72033 18.9181 9.78858 20.5225C11.0221 21.4794 12.3499 22.2827 13.7259 23.012C14.1066 23.2138 14.489 23.212 14.8731 23.0064C14.8895 22.9978 14.9059 22.9896 14.9224 22.9806C15.7235 22.5503 16.5204 22.113 17.271 21.5968C17.3488 21.5433 17.4097 21.5037 17.3846 21.3646C17.2418 20.5643 17.2557 19.7621 17.4467 18.9693C17.7902 17.5451 18.555 16.4002 19.7452 15.5426C20.6188 14.9132 21.5974 14.5659 22.6665 14.4687C22.764 14.4597 22.8074 14.4302 22.825 14.3341C23.0059 13.3458 23.1367 12.3504 23.1943 11.3478C23.25 10.3722 23.2728 9.39433 23.275 8.41684L23.2743 8.41646ZM24.2578 6.07833C24.7493 5.58565 25.2132 5.11952 25.6778 4.65451C26.2191 4.11287 26.7634 3.57459 27.3013 3.02996C27.6792 2.64756 27.6777 2.19825 27.3061 1.81398C27.1547 1.65736 26.9891 1.51344 26.8482 1.34822C26.486 0.923955 25.8939 0.97255 25.5358 1.33626C24.3964 2.4943 23.244 3.63964 22.0972 4.7902C22.0639 4.82347 22.0131 4.84739 22.0243 4.92888C22.5805 4.90384 23.1319 4.99654 23.6885 5.00514C24.0058 5.01 24.2301 5.2111 24.2548 5.52659C24.2682 5.69705 24.257 5.86974 24.257 6.0787L24.2578 6.07833ZM6.58995 4.88552C6.58472 4.86945 6.58434 4.85599 6.57761 4.84889C5.38967 3.65907 4.20284 2.46739 3.01116 1.28131C2.68034 0.95199 2.20038 0.954607 1.85686 1.27496C1.6793 1.44055 1.52155 1.62895 1.3354 1.7837C0.944402 2.10816 0.947766 2.67448 1.3354 3.05052C2.29645 3.98279 3.2332 4.9401 4.18004 5.88694C4.22116 5.92806 4.26415 5.96693 4.32657 6.02599C4.32657 5.85292 4.32059 5.71088 4.32769 5.56958C4.34377 5.24848 4.5845 5.01635 4.90447 5.00514C5.46705 4.98533 6.0285 4.95056 6.58958 4.88515L6.58995 4.88552ZM23.65 17.5761C23.65 17.6445 23.6567 17.7137 23.6488 17.7814C23.6286 17.9559 23.6851 18.0752 23.8342 18.1862C24.3067 18.5383 24.7661 18.9087 25.2278 19.2754C25.2835 19.3196 25.3373 19.3274 25.4001 19.3143C25.6539 19.262 25.9081 19.2108 26.1612 19.154C26.2228 19.1401 26.2778 19.1282 26.3096 19.0418C26.5133 18.4871 26.7275 17.9361 26.9454 17.3866C26.9738 17.3145 26.9622 17.276 26.9155 17.2248C26.4673 16.7358 25.9653 16.316 25.3792 15.9998C25.2973 15.9557 25.242 15.9609 25.1639 16.0144C24.7706 16.2846 24.3946 16.5803 23.9991 16.8457C23.7221 17.0315 23.5625 17.2345 23.65 17.5761ZM22.6392 17.621C22.6392 17.4801 22.6287 17.3791 22.6418 17.2812C22.6597 17.1466 22.6044 17.0678 22.4979 16.9926C22.043 16.6704 21.6038 16.3261 21.1358 16.0219C21.043 15.9617 20.9814 15.9621 20.8883 16.0151C20.328 16.3355 19.8312 16.731 19.4103 17.2225C19.352 17.2906 19.3516 17.3418 19.3834 17.4206C19.5968 17.9526 19.8061 18.4856 20.0106 19.0209C20.0386 19.0942 20.0704 19.1278 20.1485 19.1427C20.4151 19.1943 20.6797 19.256 20.9447 19.3143C21.0045 19.3274 21.0509 19.3083 21.0984 19.271C21.4983 18.9558 21.8878 18.6258 22.305 18.3353C22.5854 18.1402 22.7379 17.9253 22.6384 17.6214L22.6392 17.621ZM19.368 23.1327C19.8259 23.098 20.2532 23.0636 20.6805 23.0348C20.7694 23.0288 20.8285 22.9963 20.8771 22.9219C21.0262 22.6942 21.1787 22.4688 21.3339 22.2453C21.3765 22.184 21.3877 22.1283 21.3641 22.0573C21.1817 21.5093 21.0001 20.9609 20.8218 20.4114C20.7986 20.3393 20.7724 20.3012 20.6876 20.2885C20.4494 20.2522 20.2136 20.2029 19.9781 20.1528C19.8656 20.1288 19.7774 20.1509 19.6903 20.2305C19.2948 20.5901 18.897 20.9471 18.4941 21.2985C18.4201 21.3631 18.4104 21.4177 18.4335 21.5063C18.5707 22.0304 18.7957 22.5133 19.0881 22.9686C19.1677 23.0927 19.2469 23.169 19.368 23.1327ZM26.8314 23.129C27.1102 23.1342 27.1132 23.1365 27.1727 23.0527C27.5005 22.5896 27.7244 22.0782 27.8706 21.5317C27.8922 21.451 27.8792 21.3904 27.8063 21.3261C27.4145 20.9807 27.0269 20.6305 26.6464 20.2731C26.5372 20.1707 26.4438 20.121 26.2879 20.1685C26.0939 20.2275 25.8902 20.2642 25.6883 20.2847C25.5661 20.297 25.5178 20.3531 25.4846 20.4559C25.3164 20.9762 25.147 21.4962 24.9736 22.0147C24.9433 22.1055 24.9515 22.178 25.0057 22.2554C25.162 22.4786 25.316 22.7032 25.4663 22.9305C25.5033 22.9866 25.5384 23.0183 25.6105 23.0239C26.0374 23.0572 26.4643 23.0965 26.8314 23.1286V23.129ZM7.51586 19.8085C7.4639 19.8623 7.41269 19.9169 7.35961 19.9696C5.99112 21.34 4.62188 22.7099 3.25376 24.0807C3.20666 24.1278 3.12218 24.1592 3.21825 24.2515C3.43356 24.4582 3.63765 24.6765 3.80101 24.8436C5.25174 23.4164 6.68938 22.0008 8.12965 20.5879C8.20216 20.5165 8.21338 20.4813 8.13114 20.4069C7.92443 20.2185 7.72893 20.0174 7.51549 19.8085H7.51586ZM23.1894 22.6916C22.9218 22.6916 22.6541 22.6961 22.3869 22.6894C22.2957 22.6871 22.2388 22.7133 22.1888 22.7896C22.0426 23.012 21.8938 23.2333 21.7361 23.4478C21.6852 23.517 21.6785 23.5682 21.7118 23.6441C21.9155 24.1065 22.1166 24.57 22.314 25.035C22.3585 25.1397 22.4355 25.1875 22.5379 25.1845C22.9842 25.1714 23.4317 25.217 23.878 25.1554C23.9905 25.1397 24.0499 25.1128 24.0929 25.0032C24.2701 24.5502 24.4544 24.1001 24.6443 23.6523C24.679 23.5708 24.6626 23.5162 24.6192 23.4546C24.4663 23.2366 24.3082 23.0221 24.1651 22.7982C24.1097 22.7114 24.0507 22.6879 23.9546 22.6901C23.6997 22.6965 23.4444 22.6924 23.1894 22.6916ZM23.1816 21.6723C23.4182 21.6723 23.6548 21.6674 23.8914 21.6745C23.9946 21.6775 24.0387 21.6487 24.072 21.5433C24.2185 21.079 24.3759 20.6181 24.5366 20.1584C24.5706 20.0612 24.5564 20.0107 24.4712 19.9475C24.0667 19.6485 23.6671 19.3431 23.2709 19.0336C23.1861 18.9674 23.1334 18.9686 23.0496 19.0351C22.6646 19.3386 22.2762 19.6384 21.8819 19.9296C21.8049 19.9864 21.7993 20.0343 21.8239 20.1101C21.9798 20.5901 22.139 21.0693 22.2867 21.5519C22.3166 21.6498 22.3573 21.6775 22.4534 21.6749C22.696 21.6689 22.939 21.673 23.182 21.6726L23.1816 21.6723ZM3.84026 26.4409C3.83502 26.3403 3.75092 26.2151 3.63765 26.103C3.04518 25.5161 2.45419 24.9277 1.86097 24.3412C1.6393 24.1222 1.35895 24.108 1.16868 24.3005C0.981409 24.49 0.993744 24.7804 1.2042 24.9976C1.37315 25.1718 1.54697 25.3411 1.71892 25.5127C2.15926 25.9527 2.59848 26.3934 3.03994 26.8322C3.19171 26.9829 3.37151 27.0162 3.56925 26.9369C3.72662 26.8737 3.84362 26.6838 3.84026 26.4409ZM22.2306 15.5583C22.5207 15.7662 22.7861 15.9591 23.0552 16.1475C23.093 16.174 23.124 16.2409 23.1958 16.1882C23.4776 15.9807 23.7621 15.7774 24.0652 15.5587C23.743 15.5071 23.4496 15.4735 23.152 15.4705C22.8485 15.4675 22.5491 15.4997 22.2306 15.5587V15.5583ZM27.6194 18.3671C27.4885 18.7099 27.3704 19.0198 27.2512 19.3296C27.2295 19.3865 27.2269 19.4339 27.277 19.4807C27.5196 19.7079 27.7595 19.9378 28.0231 20.1883C28.0059 19.5438 27.8717 18.9603 27.619 18.3671H27.6194ZM18.6956 18.3978C18.4578 18.9835 18.321 19.5498 18.3046 20.1707C18.5554 19.9303 18.7804 19.7094 19.0129 19.4967C19.0742 19.4407 19.0802 19.3966 19.0514 19.3244C18.9341 19.0276 18.8219 18.7286 18.6956 18.3978ZM21.1152 24.7266C21.0786 24.6335 21.0565 24.5707 21.0296 24.5102C20.9593 24.3536 20.9227 24.1558 20.8046 24.0545C20.6902 23.9566 20.4954 24.0631 20.3354 24.0657C20.251 24.0672 20.1665 24.0657 20.0356 24.0657C20.3915 24.3304 20.7205 24.5509 21.1156 24.7266H21.1152Z" fill="#0F0E5B"/>
<path d="M25.3119 24.6866C25.2969 24.6889 25.2734 24.6982 25.2685 24.6923C25.2543 24.6754 25.2685 24.6631 25.2861 24.6567C25.2947 24.6668 25.3033 24.6769 25.3119 24.687V24.6866Z" fill="#E2F7F4"/>
<path d="M8.25037 11.7833C8.24999 10.0264 9.10525 8.80931 10.4808 8.3585C10.8812 8.22729 11.2924 8.21421 11.7204 8.24374C12.7397 8.31364 13.4918 8.8422 14.1565 9.54794C14.2697 9.66793 14.3265 9.67877 14.4465 9.54944C14.9665 8.98611 15.562 8.53045 16.3197 8.33009C18.0455 7.8733 19.7452 8.83398 20.205 10.5602C20.5504 11.8565 20.2771 12.9996 19.2914 13.9641C17.7696 15.4533 16.2714 16.9668 14.7639 18.4702C14.451 18.7824 14.1538 18.785 13.8447 18.4774C12.2953 16.9362 10.7451 15.3961 9.19609 13.8545C8.54642 13.2078 8.25859 12.4143 8.25037 11.7829V11.7833ZM9.25926 11.7111C9.26636 12.0883 9.42448 12.6128 9.83417 13.0258C11.2726 14.4754 12.7218 15.9146 14.1613 17.363C14.2723 17.4748 14.3224 17.4685 14.4301 17.3604C15.8132 15.9699 17.1839 14.5662 18.5969 13.206C19.3512 12.4793 19.5549 11.4005 19.0858 10.4477C18.4858 9.22834 16.982 8.85566 15.8483 9.64812C15.4408 9.93296 15.125 10.3124 14.7796 10.6615C14.4319 11.0132 14.1479 11.0181 13.8058 10.6664C13.5715 10.4253 13.3442 10.1763 13.099 9.94716C12.4908 9.37898 11.7802 9.09975 10.947 9.29151C9.92725 9.52663 9.25926 10.4245 9.25926 11.7108V11.7111Z" fill="#0F0E5B"/>
<path d="M9.25928 11.7111C9.25928 10.4248 9.92726 9.52696 10.947 9.29183C11.7802 9.0997 12.4908 9.3793 13.099 9.94749C13.3446 10.1766 13.5715 10.4256 13.8058 10.6667C14.1479 11.0181 14.432 11.0132 14.7796 10.6618C15.1246 10.3127 15.4409 9.93328 15.8483 9.64844C16.9817 8.85598 18.4855 9.22866 19.0858 10.448C19.5546 11.4008 19.3512 12.48 18.5969 13.2063C17.1843 14.5666 15.8135 15.9702 14.4301 17.3607C14.3228 17.4688 14.2727 17.4751 14.1613 17.3634C12.7218 15.9149 11.2726 14.4757 9.83419 13.0261C9.42412 12.6131 9.26601 12.0886 9.25928 11.7115V11.7111Z" fill="#09CFAF"/>
</svg>
