<svg width="30" height="25" viewBox="0 0 30 25" fill="none" xmlns="http://www.w3.org/2000/svg">
<g clip-path="url(#clip0_12937_28342)">
<path d="M18.9685 15.1869C18.887 15.9929 18.7123 16.7479 18.4604 17.4852C18.1399 18.4234 17.701 19.3039 17.1658 20.1378C17.0492 20.3196 16.8994 20.4304 16.6706 20.3967C16.4835 20.3688 16.3687 20.258 16.3066 20.0851C16.2441 19.9122 16.3221 19.7707 16.4095 19.6315C16.9459 18.7758 17.3756 17.8705 17.6593 16.8996C18.01 15.6999 18.1514 14.4771 18.01 13.2317C17.9435 12.6474 17.7914 12.0843 17.4961 11.5665C17.0164 10.725 16.2871 10.3064 15.3273 10.2896C14.6046 10.2767 13.8815 10.3025 13.161 10.2018C12.1905 10.0666 11.4625 9.5062 11.2559 8.67446C11.0697 7.92386 11.3167 7.26992 11.764 6.6736C12.0358 6.31138 12.39 6.02675 12.6946 5.69557C12.9398 5.42911 13.1717 5.15379 13.1898 4.76275C13.2058 4.41516 13.0626 4.14826 12.7877 3.95097C12.3643 3.64683 11.8766 3.51471 11.3677 3.46283C9.82878 3.30633 8.41626 3.71688 7.07954 4.44531C6.88048 4.55393 6.68274 4.57344 6.4952 4.45772C6.3316 4.35708 6.28993 4.18284 6.30944 3.99353C6.32717 3.82062 6.43446 3.7151 6.57279 3.63619C7.34467 3.19328 8.16753 2.88514 9.03606 2.69317C9.63415 2.56061 10.2362 2.46529 10.8489 2.48701C11.4869 2.50962 12.1143 2.6076 12.7141 2.83771C14.1989 3.40609 14.5908 4.98177 13.5392 6.17927C13.2958 6.45636 13.0214 6.70508 12.7642 6.97021C12.5279 7.21405 12.3058 7.46677 12.1958 7.80061C11.9839 8.44347 12.2389 8.96974 12.8799 9.17723C13.4794 9.37142 14.0992 9.36521 14.7194 9.34526C15.2107 9.3293 15.2018 9.33107 15.0901 8.84338C14.9393 8.18411 14.8812 7.51066 14.8241 6.83809C14.7531 5.99793 14.7602 5.15467 14.7833 4.31407C14.8059 3.48944 14.8759 2.66657 14.9859 1.8477C15.0191 1.60075 15.0457 1.35247 15.0887 1.10685C15.188 0.539801 15.6673 0.269355 16.1931 0.507436C17.3099 1.0133 18.4822 1.34804 19.6779 1.57725C20.8506 1.80203 22.0454 1.85834 23.2416 1.80247C25.0935 1.71602 26.8837 1.34405 28.6053 0.644876C29.2508 0.382853 29.7372 0.735763 29.8023 1.50676C29.911 2.78495 30.0382 4.06181 29.9881 5.34842C29.9491 6.34863 29.8635 7.34041 29.6933 8.33042C29.4774 9.58422 29.1408 10.7946 28.5569 11.9211C27.7177 13.5407 26.5353 14.8468 24.9011 15.7056C23.9071 16.2283 22.8426 16.4394 21.7311 16.3086C20.8027 16.1995 19.9488 15.8515 19.1729 15.3243C19.1131 15.2835 19.0528 15.2436 18.9676 15.1869H18.9685ZM29.0615 4.81639C29.0562 4.3358 29.0433 3.939 29.0167 3.54175C28.9861 3.07845 28.9573 2.61514 28.8912 2.15627C28.8123 1.6074 28.8035 1.61006 28.2914 1.7976C26.8155 2.3376 25.2943 2.66169 23.7244 2.75701C22.8856 2.808 22.0472 2.82396 21.2097 2.74371C20.6715 2.69184 20.1275 2.66081 19.5985 2.55706C18.4303 2.32873 17.2825 2.01706 16.1812 1.55553C16.0357 1.49479 15.9905 1.50631 15.9684 1.68099C15.8513 2.61115 15.7702 3.54308 15.7343 4.47989C15.6726 6.09991 15.7316 7.70839 16.1461 9.28762C16.1798 9.41531 16.2308 9.48935 16.3612 9.5257C17.1956 9.75979 17.7941 10.298 18.2308 11.0247C18.7451 11.8808 18.9273 12.8327 18.9823 13.8143C18.9907 13.961 19.0319 14.0599 19.1494 14.1468C19.5595 14.4505 19.9843 14.7294 20.4502 14.9399C21.293 15.3208 22.1718 15.4972 23.0917 15.3283C24.2134 15.1226 25.1551 14.5666 25.9771 13.7899C27.277 12.5618 28.0466 11.0318 28.5246 9.33373C28.9484 7.82854 29.0504 6.28611 29.061 4.81595L29.0615 4.81639Z" fill="#0F0E5B"/>
<path d="M15.5228 21.6421C14.6227 21.6147 13.8566 21.217 13.114 20.7625C12.445 20.3524 11.8549 19.8537 11.5038 19.1336C11.2196 18.5511 11.1074 17.9344 11.2714 17.2915C11.3069 17.1527 11.2315 17.0703 11.1628 16.9767C10.2211 15.6946 9.24531 14.4372 8.34973 13.1222C7.43021 11.7726 6.67252 10.326 5.86562 8.9099C4.49565 6.50515 3.17002 4.07557 1.85105 1.64244C1.71804 1.39682 1.58991 1.1481 1.53671 0.87012C1.44006 0.369573 1.73489 -0.0343228 2.17115 0.00203225C2.35558 0.0171063 2.50322 0.108437 2.63268 0.237897C2.99002 0.59524 3.24983 1.02618 3.53889 1.43451C5.76764 4.58321 7.99948 7.72925 10.1914 10.9037C10.7407 11.699 11.1566 12.5667 11.5951 13.4237C11.9985 14.2124 12.4521 14.9754 12.8666 15.7584C12.9961 16.0031 13.1548 16.1406 13.4261 16.2412C14.3217 16.5733 14.8072 17.2733 15.0009 18.188C15.0923 18.6194 15.1087 19.0645 15.2266 19.4914C15.3649 19.9924 15.6238 20.4251 16.0127 20.7687C16.1891 20.9248 16.2991 21.0866 16.2268 21.3229C16.1652 21.5255 15.9759 21.6342 15.6997 21.6421C15.6407 21.6439 15.5817 21.6421 15.5223 21.6421H15.5228ZM14.8249 20.677C14.785 20.5879 14.7615 20.5298 14.734 20.4739C14.441 19.8811 14.3124 19.2489 14.2463 18.595C14.1945 18.0833 14.0118 17.6209 13.5933 17.2849C13.2249 16.9887 12.8369 16.9439 12.4853 17.1532C12.132 17.3638 11.9679 17.7792 12.0575 18.2292C12.1209 18.5471 12.2628 18.8277 12.4596 19.0818C13.0666 19.8661 13.8779 20.3444 14.8249 20.677ZM10.1644 14.2936C10.6419 14.9382 11.1061 15.5646 11.5703 16.1911C11.7924 16.4908 11.7871 16.4793 12.1178 16.3126C12.2606 16.2408 12.2233 16.1862 12.1675 16.0874C11.7569 15.3585 11.3504 14.6274 10.9376 13.8883C10.7146 14.0674 10.4743 14.22 10.1639 14.2936H10.1644Z" fill="#0F0E5B"/>
<path d="M8.97176 24.5715C6.48898 24.411 4.44866 23.3443 2.79406 21.519C1.36957 19.9482 0.530741 18.0852 0.162314 16.0077C-0.0136981 15.0172 -0.0420727 14.0183 0.0554652 13.0141C0.265172 10.8541 1.00025 8.89936 2.30105 7.16008C2.51298 6.87633 2.7413 6.605 2.99003 6.35273C3.22678 6.11288 3.47816 6.09559 3.68609 6.2982C3.88959 6.49638 3.88516 6.73801 3.66215 6.97919C2.89604 7.80782 2.27578 8.73931 1.81824 9.76523C1.38109 10.7459 1.10311 11.7781 0.986066 12.8536C0.861483 14.001 0.920892 15.1325 1.16429 16.259C1.53494 17.9753 2.28864 19.496 3.4356 20.8265C4.28772 21.8147 5.31498 22.5662 6.50804 23.0734C7.08617 23.319 7.69623 23.495 8.32978 23.5739C10.3621 23.8271 12.226 23.405 13.9041 22.2155C14.0699 22.098 14.233 22.0235 14.4357 22.1149C14.773 22.2674 14.8112 22.6841 14.5022 22.9222C13.7853 23.4746 12.9872 23.8759 12.1302 24.1578C11.4084 24.3955 10.6698 24.5524 9.90724 24.5715C9.59556 24.5715 9.28344 24.5715 8.97132 24.571L8.97176 24.5715Z" fill="#0F0E5B"/>
<path d="M4.51202 14.6314C3.39875 14.6487 2.60249 13.6459 2.62421 12.7232C2.64948 11.6565 3.45728 10.8235 4.5098 10.8301C5.54592 10.8368 6.40381 11.7093 6.38962 12.7427C6.37543 13.7873 5.53616 14.6319 4.51246 14.6319L4.51202 14.6314ZM3.5526 12.713C3.5424 13.2384 3.96093 13.6853 4.47389 13.6973C5.00015 13.7097 5.45414 13.2805 5.46656 12.7578C5.47941 12.2324 5.02143 11.7563 4.50315 11.7558C3.98354 11.755 3.56279 12.1788 3.5526 12.713Z" fill="#0F0E5B"/>
<path d="M5.33143 19.5242C4.26605 19.5052 3.44452 18.653 3.46447 17.5881C3.48486 16.5006 4.33211 15.7061 5.45557 15.738C6.40923 15.7655 7.23918 16.6167 7.22234 17.6324C7.2046 18.7027 6.36134 19.5424 5.33187 19.5238L5.33143 19.5242ZM5.34828 16.6677C4.8167 16.6646 4.38886 17.0978 4.39152 17.636C4.39418 18.1654 4.81138 18.5972 5.33054 18.6087C5.84439 18.6198 6.27533 18.1902 6.28509 17.6568C6.29484 17.115 5.8741 16.6708 5.34872 16.6677H5.34828Z" fill="#0F0E5B"/>
<path d="M11.0657 20.6504C11.0547 21.7149 10.2238 22.5263 9.16419 22.5289C8.20167 22.5316 7.28437 21.6724 7.3225 20.5715C7.35752 19.5664 8.17285 18.7613 9.19434 18.7644C10.2389 18.768 11.0764 19.6117 11.0657 20.6504ZM9.16375 21.5983C9.71617 21.6072 10.128 21.206 10.1338 20.6535C10.1396 20.1295 9.71705 19.6901 9.20188 19.6848C8.69379 19.6795 8.28236 20.102 8.2531 20.619C8.22428 21.127 8.67961 21.6232 9.1633 21.5983H9.16375Z" fill="#0F0E5B"/>
<path d="M8.9718 24.5715C9.28392 24.5715 9.59604 24.5715 9.90772 24.572C9.59516 24.6168 9.28348 24.6172 8.9718 24.5715Z" fill="#09CFAF"/>
<path d="M29.0615 4.81641C29.0509 6.28658 28.9489 7.829 28.5251 9.33419C28.0471 11.0318 27.2775 12.5618 25.9775 13.7903C25.1556 14.5671 24.2134 15.1231 23.0922 15.3288C22.1722 15.4977 21.294 15.3212 20.4507 14.9404C19.9847 14.7298 19.56 14.4505 19.1499 14.1472C19.0324 14.0603 18.9907 13.9615 18.9828 13.8147C18.9278 12.8331 18.7456 11.8813 18.2313 11.0251C17.7946 10.2985 17.1965 9.76025 16.3616 9.52616C16.2313 9.48937 16.1803 9.41577 16.1466 9.28808C15.7321 7.70886 15.6727 6.10037 15.7347 4.48035C15.7706 3.54354 15.8522 2.61117 15.9688 1.68146C15.9906 1.50677 16.0362 1.4948 16.1816 1.55599C17.2829 2.01752 18.4308 2.3292 19.599 2.55752C20.1279 2.66082 20.6719 2.6923 21.2102 2.74418C22.0477 2.82442 22.8856 2.80846 23.7249 2.75748C25.2952 2.66216 26.8159 2.33806 28.2919 1.79806C28.8039 1.61052 28.8128 1.6083 28.8917 2.15673C28.9578 2.6156 28.9866 3.07891 29.0172 3.54221C29.0433 3.93946 29.0562 4.33626 29.062 4.81686L29.0615 4.81641ZM22.1966 11.938C23.34 11.9393 24.2192 11.6698 24.9871 11.0695C25.1848 10.9147 25.3777 10.7516 25.5147 10.5366C25.6344 10.3495 25.6326 10.1588 25.5005 9.97838C25.3724 9.80326 25.1906 9.76203 24.9871 9.80193C24.8568 9.82764 24.7734 9.92474 24.6843 10.0139C24.1132 10.5858 23.4229 10.909 22.6165 10.9524C21.56 11.0096 20.6671 10.6385 19.94 9.86932C19.8114 9.73321 19.6646 9.64809 19.4682 9.69287C19.0696 9.78464 18.9455 10.2072 19.2359 10.5441C20.0597 11.5 21.1312 11.9092 22.1957 11.9371L22.1966 11.938ZM25.4655 5.09218C24.6346 5.12543 24.0006 5.50982 23.5595 6.21653C23.4061 6.46259 23.4695 6.72904 23.6943 6.87446C23.9213 7.02121 24.1549 6.9751 24.3345 6.74678C24.3753 6.69446 24.4116 6.6386 24.4542 6.58806C24.9352 6.01258 25.6251 5.89554 26.1819 6.29367C26.3642 6.42402 26.5065 6.59027 26.6386 6.77027C26.8009 6.99107 27.074 7.03629 27.2832 6.8922C27.492 6.74855 27.5621 6.47012 27.4238 6.24623C26.9773 5.52356 26.3305 5.13208 25.4659 5.09218H25.4655ZM19.3148 5.00129C18.4982 5.01282 17.8739 5.44465 17.4164 6.14958C17.2749 6.36727 17.3423 6.63106 17.5458 6.7787C17.752 6.92811 17.9985 6.89619 18.1781 6.69269C18.2317 6.63195 18.2747 6.56234 18.3275 6.50027C18.6906 6.07421 19.1277 5.85608 19.6974 6.02278C20.0548 6.12741 20.3097 6.3615 20.5154 6.66387C20.6697 6.89131 20.945 6.94939 21.1534 6.81284C21.3676 6.67274 21.4411 6.40185 21.3002 6.17042C20.8599 5.44908 20.241 5.01371 19.3153 5.00085L19.3148 5.00129Z" fill="#09CFAF"/>
<path d="M14.825 20.6769C13.8779 20.3449 13.0662 19.8665 12.4597 19.0817C12.2633 18.8277 12.1209 18.5471 12.0575 18.2292C11.968 17.7796 12.132 17.3637 12.4854 17.1532C12.837 16.9439 13.2249 16.9887 13.5933 17.2848C14.0114 17.6209 14.1945 18.0833 14.2464 18.5949C14.3124 19.2484 14.441 19.8811 14.7341 20.4739C14.7616 20.5297 14.785 20.5878 14.825 20.6769Z" fill="#09CFAF"/>
<path d="M22.1965 11.9381C21.1316 11.9102 20.06 11.501 19.2367 10.5451C18.9463 10.2077 19.0705 9.78519 19.469 9.69386C19.6654 9.64863 19.8117 9.73376 19.9408 9.87031C20.6679 10.6391 21.5608 11.0102 22.6173 10.9534C23.4233 10.91 24.1136 10.5868 24.6851 10.0148C24.7742 9.92529 24.8576 9.82864 24.9879 9.80292C25.1914 9.76302 25.3727 9.80425 25.5013 9.97938C25.6334 10.1598 25.6352 10.3505 25.5155 10.5376C25.3781 10.7521 25.1856 10.9157 24.9879 11.0705C24.22 11.6708 23.3404 11.9403 22.1974 11.939L22.1965 11.9381Z" fill="#0F0E5B"/>
<path d="M25.4654 5.09229C26.3299 5.13219 26.9768 5.52367 27.4232 6.24634C27.5616 6.47023 27.4915 6.74821 27.2827 6.8923C27.0734 7.03639 26.7999 6.99117 26.6381 6.77038C26.5059 6.59038 26.3636 6.42412 26.1814 6.29378C25.6245 5.89564 24.9347 6.01269 24.4536 6.58816C24.4111 6.63915 24.3747 6.69501 24.3339 6.74688C24.1544 6.97521 23.9212 7.02132 23.6937 6.87457C23.469 6.72915 23.4056 6.46269 23.559 6.21663C24.0001 5.50992 24.6341 5.12554 25.4649 5.09229H25.4654Z" fill="#0F0E5B"/>
<path d="M19.3147 5.00146C20.2404 5.01477 20.8594 5.4497 21.2996 6.17103C21.4406 6.40202 21.367 6.67335 21.1529 6.81345C20.9445 6.95001 20.6696 6.89193 20.5149 6.66449C20.3096 6.36212 20.0547 6.12758 19.6969 6.0234C19.1272 5.8567 18.69 6.07483 18.3269 6.50089C18.2742 6.56252 18.2312 6.63257 18.1775 6.6933C17.998 6.8968 17.7514 6.92873 17.5453 6.77932C17.3418 6.63168 17.2744 6.36833 17.4158 6.1502C17.8734 5.44482 18.4976 5.01344 19.3143 5.00191L19.3147 5.00146Z" fill="#0F0E5B"/>
</g>
<defs>
<clipPath id="clip0_12937_28342">
<rect width="30" height="24.6057" fill="white"/>
</clipPath>
</defs>
</svg>
