<svg width="30" height="28" viewBox="0 0 30 28" fill="none" xmlns="http://www.w3.org/2000/svg">
<g clip-path="url(#clip0_12937_28263)">
<path d="M13.2743 7.67191C13.5411 7.40865 13.8055 7.14306 14.0754 6.88329C14.1596 6.80214 14.1383 6.70507 14.1383 6.61149C14.1394 4.68363 14.1394 2.75576 14.1394 0.827903C14.1394 0.750245 14.1371 0.672587 14.141 0.594929C14.1538 0.312254 14.332 0.0796681 14.5782 0.0202597C14.8679 -0.0496326 15.1517 0.0653014 15.2779 0.337105C15.3435 0.478054 15.4204 0.513777 15.5683 0.512612C16.7006 0.504846 17.8324 0.506787 18.9647 0.506399C19.3654 0.506399 19.5918 0.730054 19.5922 1.12766C19.593 2.07237 19.5922 3.0167 19.5914 3.96141C19.591 4.40328 19.3615 4.63121 18.9232 4.63121C17.7909 4.63121 16.659 4.63431 15.5268 4.62771C15.3726 4.62694 15.3385 4.6712 15.3408 4.8203C15.3501 5.43458 15.347 6.04963 15.3427 6.66391C15.342 6.76874 15.3699 6.84368 15.4456 6.91862C17.2364 8.69583 19.0253 10.4746 20.8114 12.2565C20.9019 12.3465 20.9904 12.3799 21.1154 12.3795C22.7133 12.3764 24.3115 12.3799 25.9093 12.3768C26.1729 12.3764 26.3651 12.4809 26.5138 12.6941C27.4085 13.9766 28.3058 15.2572 29.2031 16.5377C29.3305 16.7195 29.4136 16.9047 29.3425 17.1342C29.2602 17.3994 29.0517 17.569 28.7721 17.5714C28.3516 17.5749 27.9311 17.578 27.5106 17.5694C27.3735 17.5667 27.3242 17.5908 27.3246 17.7453C27.33 20.7018 27.3296 23.6582 27.325 26.6146C27.325 26.7474 27.3642 26.7758 27.4877 26.7727C27.8045 26.7645 28.1218 26.7688 28.4386 26.7707C28.8215 26.7731 29.096 27.0274 29.1006 27.3811C29.1049 27.7325 28.8327 27.9977 28.4479 27.9981C26.2032 28.0008 23.9581 28.0005 21.7134 28.0005C14.8236 28.0005 7.93376 28.0005 1.04394 28.0005C0.900662 28.0005 0.759713 27.9966 0.630801 27.9216C0.388896 27.7811 0.269691 27.5097 0.334147 27.2433C0.397827 26.98 0.645167 26.7777 0.928619 26.7719C1.25207 26.7653 1.5759 26.7599 1.89896 26.7742C2.06398 26.7816 2.09776 26.7319 2.09776 26.5723C2.09233 23.7452 2.09388 20.918 2.09194 18.0909C2.09194 17.9247 2.16416 17.7077 2.06204 17.6055C1.95992 17.5034 1.74286 17.5764 1.57629 17.5745C1.25284 17.5702 0.929396 17.5706 0.60595 17.5756C0.358609 17.5795 0.181937 17.4646 0.072051 17.2553C-0.0355054 17.0514 -0.0223035 16.8433 0.112821 16.6503C1.03851 15.3267 1.96419 14.003 2.89143 12.6805C3.03471 12.4758 3.23157 12.3741 3.4859 12.3764C3.79614 12.3792 4.10639 12.3714 4.41624 12.3679C4.45468 12.3718 4.49274 12.3795 4.53118 12.3795C5.797 12.3815 7.06322 12.3788 8.32904 12.3877C8.52086 12.3892 8.6521 12.3252 8.78373 12.1924C9.78785 11.1782 10.8025 10.1744 11.8054 9.15906C12.295 8.66321 12.8266 8.2093 13.2747 7.67269L13.2743 7.67191ZM4.41003 16.3615C5.19748 16.3933 5.98532 16.3665 6.77316 16.3712C6.83879 16.3716 6.86635 16.3471 6.86558 16.2807C6.86364 16.1025 6.8648 15.9246 6.8648 15.7285C6.75802 15.7658 6.68075 15.8147 6.5895 15.8241C6.34682 15.8489 6.12045 15.7309 6.01017 15.5169C5.89873 15.3014 5.93718 15.0184 6.12666 14.8168C6.43225 14.4922 6.74793 14.1773 7.05895 13.8585C7.13272 13.7832 7.2065 13.7079 7.30085 13.6112H4.41624C4.2353 13.6089 4.05436 13.6124 3.8738 13.6027C3.77129 13.5968 3.71344 13.6322 3.65442 13.7172C3.22497 14.3385 2.78814 14.9551 2.35442 15.5736C2.17503 15.8299 1.99758 16.0877 1.80771 16.3611H4.40925L4.41003 16.3615ZM4.41314 17.5842C4.10949 17.5807 3.80585 17.5857 3.5026 17.5706C3.34844 17.5628 3.31195 17.6114 3.31272 17.762C3.31893 19.0158 3.31583 20.27 3.31583 21.5238C3.31583 23.2109 3.31583 24.8976 3.31699 26.5848C3.31699 26.6725 3.27622 26.7742 3.44552 26.7735C4.54438 26.7665 5.64324 26.768 6.74171 26.7719C6.84927 26.7719 6.87024 26.7342 6.86752 26.6383C6.86169 26.4252 6.86635 26.212 6.86558 25.9984C6.86286 24.9582 6.86014 23.918 6.85742 22.8777C6.86014 22.736 6.86519 22.5943 6.86519 22.4526C6.86635 20.8839 6.86635 19.3152 6.86791 17.7465C6.86791 17.6525 6.88033 17.5721 6.73628 17.5737C5.96203 17.5822 5.18739 17.5822 4.41275 17.585L4.41314 17.5842ZM14.7219 26.7696C16.8827 26.7696 19.0435 26.7688 21.2044 26.7715C21.3232 26.7715 21.3865 26.7665 21.3861 26.6131C21.381 22.6409 21.3814 18.6683 21.3838 14.6961C21.3838 14.5901 21.3511 14.5182 21.2758 14.4445C20.7586 13.937 20.2464 13.4244 19.7331 12.9134C18.1097 11.2982 16.4859 9.68286 14.862 8.06796C14.798 8.00428 14.7599 7.91614 14.6403 8.03574C12.4954 10.1818 10.345 12.3221 8.19275 14.4608C8.10539 14.5474 8.08209 14.6363 8.08209 14.752C8.08442 18.692 8.0852 22.632 8.08054 26.5719C8.08054 26.7307 8.11315 26.7742 8.27818 26.7735C10.4262 26.7672 12.5738 26.7692 14.7219 26.7692V26.7696ZM26.1085 22.1897C26.1085 20.715 26.1054 19.2402 26.1127 17.7655C26.1135 17.5974 26.063 17.5679 25.9077 17.569C24.8795 17.576 23.8509 17.5776 22.8228 17.5683C22.6434 17.5667 22.603 17.6156 22.6034 17.7904C22.6088 20.7204 22.6076 23.6504 22.6034 26.5805C22.6034 26.7257 22.6294 26.7754 22.7882 26.7738C23.8296 26.7657 24.871 26.7661 25.912 26.7738C26.0716 26.775 26.1139 26.7389 26.1131 26.575C26.1058 25.1131 26.1089 23.6516 26.1089 22.1897H26.1085ZM27.5288 16.3556C27.5521 16.3059 27.53 16.2892 27.5156 16.269C26.9165 15.4187 26.3166 14.5687 25.7206 13.716C25.6619 13.6322 25.5994 13.603 25.4977 13.6034C24.4431 13.6077 23.3885 13.6058 22.3339 13.6081C22.2962 13.6081 22.243 13.5778 22.2244 13.6248C22.4508 13.857 22.6713 14.0849 22.8938 14.3105C23.0484 14.467 23.2149 14.6126 23.3601 14.7772C23.6914 15.1527 23.5318 15.6979 23.0689 15.807C22.9051 15.8454 22.7668 15.7728 22.6065 15.7165C22.6065 15.8808 22.6158 16.0353 22.6038 16.1887C22.5933 16.3246 22.6372 16.3599 22.7734 16.3595C24.3584 16.3545 25.9434 16.3564 27.5288 16.3564V16.3556ZM16.8788 3.43255C17.3374 3.43255 17.7963 3.4279 18.2549 3.43566C18.3811 3.4376 18.4211 3.4046 18.4192 3.27491C18.4118 2.81634 18.4129 2.35738 18.4192 1.89881C18.4207 1.77766 18.3966 1.73068 18.2615 1.73145C17.344 1.73767 16.4264 1.73689 15.5093 1.73223C15.3862 1.73145 15.3408 1.7598 15.3431 1.89221C15.3509 2.35078 15.3521 2.80974 15.3423 3.26831C15.3392 3.41392 15.3955 3.43644 15.5221 3.43488C15.9745 3.42867 16.4265 3.43255 16.8788 3.43294V3.43255Z" fill="#0F0E5B"/>
<path d="M13.2744 7.67197C12.8263 8.20859 12.2944 8.6625 11.8051 9.15834C10.8022 10.1737 9.78758 11.1775 8.78346 12.1917C8.65183 12.3245 8.52059 12.3885 8.32877 12.387C7.06294 12.378 5.79673 12.3808 4.5309 12.3788C4.49246 12.3788 4.45441 12.3711 4.41597 12.3672C4.41558 10.854 4.41131 9.34084 4.41558 7.82806C4.41869 6.73619 5.3634 5.80274 6.45566 5.80235C8.02047 5.80196 9.58567 5.81944 11.1501 5.7973C12.0653 5.7841 13.1304 6.47759 13.2748 7.67197H13.2744Z" fill="#09CFAF"/>
<path d="M6.85753 22.8773C5.46163 22.979 4.41053 21.9943 4.41324 20.5907C4.41519 19.5885 4.41324 18.5867 4.41324 17.5845C5.18788 17.5818 5.96213 17.5818 6.73677 17.5733C6.88044 17.5717 6.8684 17.6521 6.8684 17.7461C6.86685 19.3147 6.86685 20.8834 6.86569 22.4521C6.86569 22.5939 6.86064 22.7356 6.85792 22.8773H6.85753Z" fill="#09CFAF"/>
<path d="M4.41677 13.6116H7.30137C7.20702 13.7079 7.13324 13.7832 7.05947 13.8589C6.74806 14.1777 6.43238 14.4926 6.12718 14.8172C5.9377 15.0183 5.89926 15.3014 6.0107 15.5173C6.12097 15.7312 6.34735 15.8489 6.59003 15.8244C6.68089 15.8151 6.75816 15.7666 6.86532 15.7289C6.86532 15.925 6.86416 16.1032 6.8661 16.2811C6.86688 16.3475 6.83931 16.3719 6.77369 16.3715C5.98585 16.3669 5.19801 16.3937 4.41055 16.3618C4.41288 15.4451 4.41482 14.5283 4.41715 13.612L4.41677 13.6116Z" fill="#09CFAF"/>
<path d="M16.8789 3.43255C16.4266 3.43255 15.9742 3.42828 15.5222 3.43488C15.3957 3.43683 15.3394 3.41392 15.3425 3.26831C15.3522 2.80974 15.351 2.35078 15.3432 1.89221C15.3409 1.7598 15.3863 1.73184 15.5094 1.73223C16.427 1.73689 17.3445 1.73767 18.2616 1.73145C18.3968 1.73068 18.4208 1.77766 18.4193 1.89881C18.4131 2.35738 18.4119 2.81634 18.4193 3.27491C18.4212 3.4046 18.3816 3.4376 18.255 3.43566C17.7965 3.42828 17.3375 3.43255 16.8789 3.43255Z" fill="#09CFAF"/>
<path d="M10.1184 18.2255C10.1234 16.7147 11.0418 15.6135 12.4194 15.4174C13.2608 15.2978 13.9869 15.5832 14.5837 16.1843C14.6855 16.2868 14.7274 16.3004 14.8431 16.1893C15.617 15.4489 16.5287 15.1767 17.5511 15.5451C18.5971 15.9222 19.1628 16.7178 19.2813 17.8159C19.3834 18.7625 19.0712 19.5636 18.3878 20.2322C17.315 21.2821 16.2549 22.3449 15.1902 23.4026C14.8711 23.7194 14.5251 23.7198 14.2044 23.4006C13.1222 22.3235 12.042 21.2441 10.9579 20.1689C10.3894 19.6051 10.1339 18.9167 10.118 18.2251L10.1184 18.2255ZM18.1211 18.2341C18.1277 17.1232 17.2715 16.4301 16.3198 16.6762C15.8791 16.7904 15.5591 17.0711 15.3044 17.4388C14.9328 17.9755 14.4793 17.9731 14.1228 17.4342C14.0001 17.2486 13.8499 17.0905 13.6748 16.955C13.1968 16.5858 12.5308 16.51 12.0536 16.7939C11.4937 17.127 11.2573 17.6338 11.3089 18.2803C11.3462 18.7478 11.6017 19.0922 11.915 19.416C12.796 20.3269 13.7206 21.1936 14.6129 22.0929C14.6994 22.1802 14.7472 22.19 14.84 22.0964C15.7762 21.1493 16.7325 20.2229 17.6571 19.2642C17.9665 18.9435 18.1094 18.566 18.1211 18.2344V18.2341Z" fill="#0F0E5B"/>
<path d="M18.1211 18.2342C18.1094 18.5662 17.9665 18.9433 17.6571 19.264C16.7325 20.2227 15.7762 21.1495 14.84 22.0962C14.7476 22.1898 14.6994 22.18 14.6129 22.0927C13.7206 21.1934 12.796 20.3264 11.915 19.4158C11.6017 19.092 11.3462 18.7476 11.3089 18.2801C11.2573 17.6336 11.4933 17.1268 12.0536 16.7937C12.5308 16.5098 13.1972 16.5856 13.6747 16.9548C13.8499 17.0903 14.0001 17.2484 14.1228 17.434C14.4797 17.9729 14.9328 17.9753 15.3044 17.4386C15.5591 17.0709 15.8791 16.7902 16.3198 16.676C17.2715 16.4299 18.1277 17.123 18.1211 18.2339V18.2342Z" fill="#09CFAF"/>
</g>
<defs>
<clipPath id="clip0_12937_28263">
<rect width="29.3691" height="28" fill="white"/>
</clipPath>
</defs>
</svg>
