<svg width="30" height="21" viewBox="0 0 30 21" fill="none" xmlns="http://www.w3.org/2000/svg">
<g clip-path="url(#clip0_12937_28330)">
<path d="M16.5837 17.9383C16.7441 18.0719 16.9021 18.2796 16.8365 18.5903C16.8016 18.7565 16.7154 18.8865 16.6 19.0023C16.1791 19.4232 15.7593 19.8453 15.3349 20.2623C14.9866 20.6048 14.547 20.6041 14.2033 20.2643C12.9697 19.0458 11.7379 17.8253 10.5035 16.6075C10.2693 16.3765 10.1381 16.1136 10.2142 15.7261C9.67211 15.7261 9.14206 15.7311 8.6124 15.7245C8.1802 15.7191 7.74646 15.7191 7.31659 15.683C6.55627 15.6193 5.79479 15.568 5.03797 15.4604C4.2361 15.3463 3.43229 15.2477 2.64207 15.0651C2.11046 14.9424 1.58352 14.8034 1.07483 14.6023C0.906689 14.5359 0.744374 14.4594 0.594873 14.3576C-0.217869 13.8043 -0.194182 12.7512 0.644189 12.2301C1.02629 11.9928 1.4348 11.8049 1.84369 11.6192C1.94892 11.5715 1.99009 11.5206 2.0029 11.3987C2.08872 10.5762 2.11357 9.74796 2.20016 8.92745C2.45956 6.46864 3.43384 4.35272 5.34939 2.7315C6.31591 1.91371 7.43658 1.38017 8.65434 1.04777C8.80151 1.00778 8.88616 0.953025 8.9281 0.784497C9.04964 0.294056 9.45388 0.00126684 9.96723 0.000101899C10.5303 -0.00067473 11.0933 -0.00067473 11.656 0.00592661C12.2563 0.0129163 12.7382 0.300269 12.8963 0.900214C12.9192 0.987974 12.9638 1.00273 13.0365 1.02253C14.055 1.29785 15.0064 1.72189 15.8781 2.31989C16.7499 -0.201433 20.0789 -0.797108 21.9331 1.55025C22.4344 0.930503 23.0425 0.465691 23.8122 0.225324C25.7367 -0.375786 27.7411 0.78605 28.1112 2.76801C28.3461 4.02731 28.0165 5.17711 27.1195 6.10052C25.6544 7.60873 24.1535 9.08239 22.6639 10.5669C22.229 11.0007 21.6147 10.982 21.1647 10.5292C19.7287 9.08316 18.2946 7.63475 16.8606 6.18634C16.5864 5.90947 16.3628 5.59455 16.1772 5.25244C15.8739 4.69327 15.7263 4.09216 15.7092 3.45959C15.7061 3.34543 15.6774 3.27204 15.5838 3.2037C14.867 2.67986 14.0892 2.27834 13.2081 2.00846C13.2951 2.30591 13.377 2.58433 13.4582 2.86237C13.5397 3.14118 13.4259 3.38077 13.1794 3.44911C12.9355 3.51706 12.7212 3.38387 12.6396 3.10933C12.4454 2.45813 12.2459 1.80809 12.0641 1.1534C12.0086 0.953802 11.9045 0.886624 11.7069 0.887788C11.157 0.890507 10.6068 0.883517 10.0569 0.871479C9.87248 0.867596 9.7754 0.942152 9.72259 1.11806C9.52222 1.78635 9.31136 2.45192 9.10711 3.11904C9.05469 3.29107 8.94713 3.39436 8.76928 3.41766C8.57706 3.44251 8.4295 3.36562 8.3266 3.20486C8.24699 3.08099 8.25554 2.94741 8.29709 2.81383C8.37747 2.55676 8.45979 2.30048 8.54677 2.02633C8.3499 2.04885 8.1771 2.12651 8.0043 2.19447C5.89148 3.02624 4.44656 4.52513 3.59227 6.61581C3.38375 7.12645 3.24085 7.65999 3.14221 8.1947C3.06766 8.59777 3.01795 9.01521 3.00203 9.43303C2.96864 10.3071 2.89059 11.1789 2.78302 12.0476C2.76477 12.1951 2.75662 12.2895 2.96476 12.2483C3.13988 12.2138 3.3255 12.2301 3.50684 12.2301C7.16282 12.2301 10.8188 12.2301 14.4748 12.2339C14.608 12.2339 14.6996 12.1982 14.7948 12.1027C15.1543 11.7412 15.4716 11.3323 15.8991 11.0445C16.6416 10.5448 17.4617 10.346 18.3548 10.4306C18.9256 10.4846 19.4596 10.6547 19.978 10.8884C20.5558 11.1486 21.1588 11.2752 21.7949 11.2616C22.5839 11.2449 23.3734 11.2426 24.1628 11.2395C24.3496 11.2387 24.5411 11.2379 24.7224 11.276C25.0991 11.3552 25.4008 11.5521 25.5689 11.9501C25.9592 11.5214 26.3327 11.1129 26.704 10.7024C27.0814 10.2854 27.4538 9.86329 27.8347 9.44934C28.3236 8.91774 29.0203 8.83076 29.5499 9.22762C29.939 9.51924 30.099 10.1141 29.9378 10.6508C29.8419 10.9696 29.6641 11.2441 29.4866 11.5194C28.9108 12.4118 28.3663 13.3263 27.7279 14.1755C26.9276 15.241 25.9005 16.0239 24.6459 16.4868C24.0126 16.7205 23.3544 16.8522 22.6752 16.8518C21.174 16.851 19.6728 16.8545 18.1715 16.8409C17.7731 16.8374 17.4415 16.9318 17.1833 17.2494C16.9953 17.4805 16.7922 17.6995 16.5837 17.9383ZM27.326 3.38387C27.3191 2.71947 27.0414 2.03137 26.405 1.52074C25.9118 1.12544 25.3581 0.96351 24.7022 0.989138C24.044 1.01516 23.5276 1.27338 23.0441 1.66015C22.761 1.88692 22.5257 2.16495 22.2943 2.44415C22.0512 2.73733 21.7495 2.73422 21.5188 2.43056C21.2283 2.04768 20.9134 1.69082 20.5123 1.41706C19.1221 0.468021 17.259 1.03224 16.7286 2.59171C16.3488 3.70734 16.6396 4.7154 17.4349 5.54251C18.8511 7.01539 20.3061 8.45099 21.7464 9.90095C21.9009 10.0567 21.9813 10.0602 22.1413 9.90911C22.3246 9.73592 22.4966 9.55108 22.674 9.37207C23.9322 8.10577 25.193 6.84259 26.4469 5.57202C27.0041 5.00742 27.3214 4.33214 27.326 3.38387ZM20.2494 15.9913C20.4436 15.9913 20.6377 15.9952 20.8319 15.9905C21.6582 15.9703 22.4857 16.0476 23.3105 15.9241C24.7624 15.7066 25.9157 14.9774 26.8581 13.882C27.3688 13.2886 27.761 12.6114 28.1928 11.9629C28.4988 11.5031 28.8141 11.0488 29.0762 10.5611C29.1608 10.4034 29.162 10.2361 29.1282 10.0714C29.082 9.84659 28.8886 9.76504 28.684 9.87105C28.5733 9.92852 28.4852 10.0143 28.4028 10.1056C27.5878 11.0076 26.7808 11.9171 25.9561 12.8098C25.5592 13.2393 25.2435 13.7503 24.6793 14.019C24.449 14.1285 24.2242 14.2392 23.9788 14.2442C22.8146 14.2668 21.6497 14.273 20.4851 14.2776C20.2121 14.2788 20.0595 14.12 20.0502 13.8664C20.0397 13.5861 20.1675 13.442 20.4572 13.4133C20.5469 13.4043 20.6381 13.4051 20.7286 13.4047C21.7638 13.4004 22.7991 13.3969 23.8343 13.3923C24.2494 13.3903 24.6486 13.1259 24.8016 12.7671C24.9433 12.4343 24.7857 12.1124 24.444 12.1031C24.3698 12.1011 24.2914 12.0837 24.2156 12.0876C23.3233 12.1307 22.4302 12.1097 21.5374 12.1155C21.1231 12.1182 20.7216 12.0483 20.3243 11.9314C19.8743 11.799 19.4627 11.5672 19.013 11.4348C17.8201 11.0845 16.7705 11.2725 15.8859 12.2083C15.0906 13.0494 14.2666 13.8633 13.4516 14.6858C13.3949 14.7428 13.3972 14.7669 13.4504 14.8193C14.255 15.6158 15.0584 16.4138 15.8587 17.2145C15.922 17.2778 15.9508 17.27 16.0086 17.2114C16.2556 16.9609 16.5084 16.7166 16.7581 16.4693C17.0485 16.1815 17.3961 16.0165 17.805 15.9932C18.6196 15.947 19.4347 16.001 20.2498 15.9913H20.2494ZM1.90854 12.5423C1.61264 12.6805 1.33345 12.8125 1.07483 12.9807C0.768838 13.1795 0.778934 13.4649 1.09192 13.6451C1.37694 13.8093 1.68176 13.9285 1.99785 14.0167C3.6078 14.4656 5.2562 14.6761 6.91779 14.7871C8.18176 14.8718 9.44883 14.9083 10.7163 14.9114C10.8281 14.9114 10.9085 14.885 10.9866 14.8026C11.1908 14.5867 11.4052 14.3802 11.6148 14.1693C12.023 13.7589 12.3123 13.7429 12.7511 14.1192C12.8307 14.1872 12.8602 14.1631 12.9145 14.0971C13.0085 13.9825 13.1137 13.8765 13.2151 13.7678C13.4201 13.5488 13.6558 13.3581 13.8453 13.0871C13.7129 13.0871 13.6057 13.0867 13.4986 13.0871C9.8453 13.1038 6.19165 13.0506 2.53839 13.117C2.16483 13.1236 1.94194 12.9228 1.90893 12.5427L1.90854 12.5423ZM11.0417 15.9412C12.2633 17.1473 13.4741 18.3414 14.6818 19.5385C14.7579 19.6139 14.7959 19.6034 14.8639 19.5335C15.1803 19.21 15.4995 18.8885 15.8249 18.574C15.9096 18.492 15.8906 18.4524 15.8176 18.3794C14.6445 17.2114 13.4729 16.0418 12.3049 14.8687C12.2233 14.7867 12.1841 14.7984 12.1103 14.8737C11.7616 15.229 11.4063 15.5777 11.0417 15.9408V15.9412Z" fill="#0F0E5B"/>
<path d="M14.8868 7.45644C14.9093 7.77874 14.8118 8.06182 14.6712 8.33442C14.4744 8.71575 14.2822 9.09901 14.121 9.49781C13.9727 9.86516 13.6259 9.9401 13.3285 9.67915C13.2267 9.58984 13.1246 9.50053 13.0279 9.40539C12.9281 9.30676 12.8866 9.40733 12.8275 9.45587C12.7378 9.52926 12.8209 9.56344 12.8621 9.60499C12.9801 9.72459 13.1059 9.83759 13.2174 9.96301C13.4667 10.2445 13.3949 10.5715 13.0349 10.6732C12.5848 10.8002 12.1787 11.0169 11.7678 11.2246C11.1931 11.5155 10.6273 11.5233 10.0561 11.2235C9.65383 11.0122 9.25426 10.801 8.81119 10.6717C8.42598 10.5595 8.35958 10.2205 8.63218 9.91835C8.73586 9.80341 8.84925 9.69663 8.95797 9.58596C8.99681 9.54674 9.06476 9.50674 8.98011 9.45354C8.92031 9.41588 8.88419 9.29084 8.77857 9.38481C8.68227 9.47063 8.58325 9.55412 8.49083 9.6442C8.19105 9.93661 7.7973 9.88108 7.65984 9.46092C7.50607 8.99067 7.22609 8.57479 7.0265 8.12357C6.81448 7.64477 6.83894 7.16055 7.06067 6.69263C7.27191 6.24684 7.53286 5.8263 7.72275 5.36809C7.85439 5.05006 8.16542 4.99065 8.43841 5.20422C8.54986 5.29159 8.65548 5.38944 8.751 5.4939C8.8609 5.61428 8.89779 5.48614 8.96302 5.44614C9.05894 5.38673 8.98865 5.35061 8.94865 5.30285C8.8143 5.14248 8.62713 5.03258 8.54092 4.82484C8.40967 4.50875 8.4854 4.28081 8.81818 4.19693C9.28649 4.07927 9.69888 3.84434 10.1241 3.63426C10.2802 3.55738 10.4394 3.49564 10.6091 3.4537C11.0374 3.34808 11.4203 3.47506 11.7911 3.67038C12.188 3.87929 12.5817 4.08665 13.0232 4.19965C13.41 4.29867 13.4888 4.67689 13.2085 4.96424C13.0912 5.08462 12.9731 5.20461 12.85 5.31916C12.7891 5.37585 12.7767 5.4174 12.852 5.46866C12.9087 5.5071 12.9417 5.6135 13.0364 5.5172C13.1316 5.42051 13.2271 5.32343 13.3304 5.23567C13.6267 4.98404 13.9233 5.0388 14.0795 5.39216C14.2744 5.83251 14.4907 6.26121 14.7151 6.68641C14.8425 6.92756 14.9112 7.18889 14.8871 7.45722L14.8868 7.45644ZM12.24 10.0721C12.1464 9.96806 12.0645 9.87797 11.9841 9.7871C11.743 9.51567 11.7511 9.30055 12.0396 9.0827C12.2427 8.92932 12.4213 8.76506 12.5701 8.55459C12.7324 8.32471 12.9747 8.31656 13.1945 8.49829C13.2741 8.5643 13.3545 8.62993 13.4279 8.70254C13.4978 8.77205 13.5401 8.78991 13.5917 8.68002C13.7156 8.41752 13.8577 8.16356 13.9808 7.90067C14.1233 7.59662 14.1175 7.28636 13.9707 6.98464C13.8721 6.78155 13.763 6.58351 13.6566 6.38431C13.5592 6.20206 13.4359 6.17682 13.2865 6.30859C13.243 6.34703 13.1988 6.38547 13.1518 6.41964C12.9658 6.55439 12.7549 6.54507 12.6182 6.3614C12.4349 6.11443 12.2229 5.90823 11.9748 5.72611C11.7713 5.577 11.7674 5.36498 11.9274 5.16578C12 5.0753 12.0781 4.98754 12.1631 4.90871C12.2489 4.82872 12.2229 4.78872 12.1328 4.74251C11.8688 4.60699 11.6098 4.46137 11.3434 4.33012C11.0933 4.20703 10.8277 4.18955 10.5745 4.30799C10.2375 4.46565 9.91051 4.64543 9.57539 4.81746C9.68917 4.95065 9.79518 5.06443 9.88876 5.18752C10.0441 5.391 10.0251 5.59525 9.81537 5.7432C9.58005 5.9094 9.37852 6.09851 9.20999 6.33421C9.06049 6.54313 8.79061 6.55089 8.59684 6.3812C8.52384 6.31752 8.44967 6.25461 8.38172 6.18549C8.3025 6.10472 8.26289 6.12802 8.21513 6.22121C8.09242 6.46275 7.95535 6.69729 7.83225 6.93882C7.6812 7.2351 7.64275 7.54537 7.78488 7.85369C7.91729 8.14065 8.07223 8.41674 8.21319 8.69982C8.25707 8.78758 8.29435 8.77127 8.35376 8.71613C8.44851 8.62838 8.54597 8.54256 8.64965 8.46567C8.83721 8.32588 9.06515 8.3352 9.20145 8.52198C9.3758 8.7604 9.58433 8.95145 9.8177 9.1293C10.0336 9.29356 10.0418 9.5114 9.87129 9.72303C9.80256 9.80846 9.72489 9.8869 9.64684 9.96418C9.58005 10.0302 9.55054 10.0714 9.66626 10.1265C9.92837 10.2511 10.1819 10.3933 10.4409 10.5249C10.7299 10.6717 11.0285 10.6802 11.3193 10.5435C11.6265 10.3991 11.9243 10.2348 12.2396 10.0721H12.24Z" fill="#0F0E5B"/>
<path d="M27.3261 3.38375C27.3214 4.33201 27.0042 5.00768 26.4469 5.5719C25.1931 6.84207 23.9318 8.10565 22.6741 9.37194C22.4962 9.55095 22.3246 9.73579 22.1413 9.90898C21.9813 10.06 21.9009 10.0569 21.7464 9.90082C20.3061 8.45086 18.8511 7.01526 17.4349 5.54238C16.6397 4.71528 16.3492 3.70721 16.7286 2.59158C17.2594 1.03211 19.1225 0.467893 20.5123 1.41693C20.9135 1.69069 21.2284 2.04756 21.5188 2.43043C21.7495 2.7341 22.0508 2.7372 22.2943 2.44402C22.5257 2.16483 22.7611 1.88679 23.0441 1.66002C23.5276 1.27287 24.044 1.01503 24.7022 0.989011C25.3581 0.962994 25.9118 1.12492 26.405 1.52061C27.0418 2.03125 27.3191 2.71973 27.3261 3.38375Z" fill="#09CFAF"/>
<path d="M12.24 10.072C11.9247 10.2347 11.6269 10.399 11.3197 10.5434C11.0289 10.6805 10.7303 10.6716 10.4414 10.5248C10.1824 10.3932 9.92879 10.2514 9.66668 10.1264C9.55096 10.0713 9.58048 10.0301 9.64727 9.96408C9.72532 9.88681 9.80298 9.80837 9.87171 9.72294C10.0418 9.5117 10.0336 9.29347 9.81813 9.12921C9.58475 8.95175 9.37622 8.76031 9.20187 8.52188C9.06518 8.33549 8.83763 8.32579 8.65008 8.46558C8.54678 8.54246 8.44893 8.62828 8.35418 8.71604C8.29477 8.77118 8.2571 8.78749 8.21361 8.69973C8.07265 8.41665 7.91771 8.14017 7.7853 7.8536C7.64318 7.54527 7.68162 7.23501 7.83267 6.93873C7.95577 6.6972 8.09284 6.46265 8.21555 6.22112C8.26293 6.12754 8.30253 6.10463 8.38214 6.1854C8.45009 6.25452 8.52426 6.31742 8.59726 6.38111C8.79103 6.5508 9.06091 6.54342 9.21041 6.33412C9.37894 6.09841 9.58048 5.90931 9.8158 5.74311C10.0255 5.59516 10.0445 5.39052 9.88919 5.18743C9.79521 5.06433 9.6892 4.95095 9.57582 4.81737C9.91093 4.64534 10.2379 4.46555 10.5749 4.3079C10.8281 4.18946 11.0937 4.20694 11.3438 4.33003C11.6102 4.46089 11.8688 4.6069 12.1333 4.74242C12.2233 4.78863 12.2497 4.82863 12.1635 4.90862C12.0785 4.98745 12.0005 5.07521 11.9278 5.16568C11.7679 5.36489 11.7717 5.57652 11.9752 5.72602C12.2233 5.90775 12.4354 6.11434 12.6186 6.3613C12.7553 6.54498 12.9658 6.5543 13.1522 6.41955C13.1992 6.38538 13.2431 6.34694 13.2869 6.30849C13.4363 6.17698 13.5597 6.20222 13.657 6.38421C13.7634 6.58342 13.8725 6.78146 13.9711 6.98455C14.1179 7.28666 14.1238 7.59653 13.9812 7.90058C13.8581 8.16347 13.7164 8.41743 13.5922 8.67993C13.5401 8.78982 13.4982 8.77196 13.4283 8.70245C13.3553 8.62984 13.2749 8.56382 13.1949 8.4982C12.9751 8.31685 12.7332 8.32462 12.5705 8.5545C12.4222 8.76497 12.2431 8.92923 12.0401 9.08261C11.7515 9.30007 11.7434 9.51519 11.9845 9.78701C12.0653 9.87788 12.1468 9.96797 12.2404 10.072H12.24Z" fill="#09CFAF"/>
</g>
<defs>
<clipPath id="clip0_12937_28330">
<rect width="30" height="20.5193" fill="white"/>
</clipPath>
</defs>
</svg>
