<svg width="30" height="30" viewBox="0 0 30 30" fill="none" xmlns="http://www.w3.org/2000/svg">
<g clip-path="url(#clip0_12937_28362)">
<path d="M5.7638 11.6681C7.8924 11.523 9.46585 13.3346 9.69726 15.0143C9.76342 15.4954 9.7638 15.9829 9.84305 16.4629C9.95969 17.1698 10.1272 17.8655 10.3623 18.5406C10.5077 18.9582 10.3989 19.2838 10.1212 19.5814C9.66548 20.0688 9.09613 20.3369 8.43894 20.4258C8.11707 20.4692 7.7937 20.483 7.47071 20.4453C7.39483 20.4363 7.33875 20.4707 7.27744 20.4987C6.30286 20.9458 5.33127 20.9586 4.36417 20.4774C4.28604 20.4386 4.21202 20.4449 4.13015 20.4501C3.23483 20.5062 2.37539 20.4124 1.63856 19.8296C1.47595 19.701 1.338 19.5511 1.22399 19.3776C1.07595 19.1522 1.03146 18.9208 1.10735 18.6516C1.42025 17.5406 1.60455 16.4116 1.64791 15.2528C1.71071 13.5698 3.20455 11.9612 4.86922 11.7118C5.15483 11.6688 5.44043 11.6778 5.76417 11.6681H5.7638ZM8.51744 19.4943C8.86922 19.4292 9.17165 19.2666 9.43483 19.0281C9.49838 18.9705 9.56043 18.9137 9.52417 18.8057C9.38174 18.3832 9.25015 17.9571 9.16417 17.5167C9.14212 17.9892 9.05165 18.4412 8.85726 18.8733C8.76006 19.0898 8.60679 19.2718 8.51034 19.4872C8.50585 19.4939 8.50137 19.5006 8.49726 19.5073C8.50398 19.5029 8.51071 19.4984 8.51744 19.4943ZM8.26585 17.2673C8.26585 16.9877 8.25688 16.8008 8.26884 16.6146C8.27707 16.4872 8.23894 16.4337 8.11184 16.4004C7.53651 16.249 7.02772 15.9731 6.60567 15.5492C6.53987 15.4834 6.50174 15.4767 6.43184 15.5458C6.09651 15.8774 5.698 16.1186 5.27146 16.3122C4.7481 16.55 4.20081 16.7058 3.62922 16.7765C3.56268 16.7847 3.45613 16.75 3.45838 16.8875C3.46361 17.2172 3.43296 17.5488 3.47782 17.8759C3.61726 18.8924 4.45352 19.7443 5.47707 19.929C6.43969 20.1025 7.46099 19.5948 7.95856 18.7066C8.22735 18.227 8.29015 17.7107 8.26548 17.2673H8.26585ZM5.71595 12.5376C3.86698 12.4438 2.44567 13.9701 2.50099 15.7548C2.50361 15.8348 2.46548 15.9324 2.61464 15.9346C3.26511 15.9436 3.91109 15.9148 4.53127 15.695C5.22884 15.4475 5.85015 15.1047 6.15707 14.3701C6.22361 14.2113 6.37053 14.135 6.55258 14.1391C6.77913 14.144 6.91819 14.2475 7.01726 14.5264C7.08081 14.7055 7.1552 14.8715 7.30099 15C7.64567 15.3047 8.04641 15.4976 8.49613 15.5772C8.93726 15.6554 8.87707 15.6415 8.83632 15.2587C8.68641 13.8505 7.42062 12.4329 5.71595 12.5376ZM3.23258 19.5264C2.9081 19.0696 2.71146 18.5929 2.62399 18.0707C2.55782 17.6752 2.57651 17.2778 2.57576 16.8804C2.57576 16.8124 2.57127 16.7597 2.48193 16.7552C2.39445 16.7507 2.39856 16.8105 2.39221 16.8647C2.31258 17.5257 2.18174 18.1757 1.96754 18.8072C1.94847 18.8629 1.9552 18.895 1.9937 18.9376C2.3167 19.2969 2.72791 19.4666 3.23258 19.5264Z" fill="#0F0E5B"/>
<path d="M18.5249 5.09186C18.5301 5.6971 18.5436 6.37336 18.3522 7.03766C17.8849 8.65859 16.4393 9.87653 14.7667 10.0406C12.532 10.2597 10.5765 8.76289 10.2049 6.54682C10.1585 6.27018 10.1469 5.98981 10.1533 5.70906C10.1694 5.01224 10.1013 4.31205 10.1892 3.61896C10.4101 1.87728 11.6374 0.503077 13.3544 0.115414C15.1922 -0.299166 16.9163 0.424199 17.892 1.94719C18.3152 2.60775 18.5058 3.34196 18.5238 4.12214C18.5305 4.42083 18.5249 4.7199 18.5249 5.09186ZM11.0501 4.28588C11.0501 4.82756 11.0509 5.35653 11.0501 5.88551C11.049 6.46495 11.1981 7.00401 11.483 7.50607C12.1746 8.72588 13.6146 9.39803 14.9372 9.11952C16.3933 8.81336 17.4613 7.66607 17.5985 6.2242C17.671 5.46121 17.6266 4.69336 17.615 3.92812C17.6112 3.67504 17.5615 3.4242 17.4673 3.16812C17.3036 3.35953 17.1428 3.53934 16.951 3.68887C15.7615 4.61784 14.3881 4.79803 12.9417 4.67205C12.3028 4.61635 11.6785 4.47878 11.0501 4.28551V4.28588ZM13.895 3.8313C14.963 3.81261 16.0752 3.49411 16.9032 2.48065C17.0333 2.32102 17.0157 2.23467 16.8991 2.10083C16.1211 1.20887 15.1559 0.792423 13.9664 0.910928C12.6438 1.04252 11.5376 1.95803 11.1679 3.23354C11.1316 3.3584 11.1552 3.3999 11.2778 3.43766C12.0737 3.68214 12.8845 3.82569 13.895 3.83168V3.8313Z" fill="#0F0E5B"/>
<path d="M26.7626 16.2974C26.7484 16.8044 26.8045 17.3718 26.6658 17.9311C26.2097 19.7703 24.5675 20.9778 22.6348 20.8877C20.9297 20.8085 19.4262 19.4773 19.126 17.795C19.0352 17.287 19.0598 16.7774 19.0572 16.2679C19.0542 15.69 19.0329 15.1117 19.1641 14.5393C19.4852 13.1386 20.754 11.9584 22.1802 11.7558C23.3282 11.5928 24.4056 11.7539 25.3323 12.5072C26.258 13.2597 26.7638 14.2257 26.7626 15.4354C26.7626 15.7031 26.7626 15.9711 26.7626 16.2971V16.2974ZM25.8927 16.7595C25.8927 16.4993 25.8927 16.3188 25.8927 16.1382C25.8927 16.0817 25.8972 16.0339 25.818 16.0137C25.2486 15.8672 24.8628 15.4776 24.5323 15.0208C24.4845 14.955 24.4565 14.9341 24.3735 14.9763C23.0142 15.672 21.5843 16.1217 20.0497 16.1973C19.9735 16.201 19.938 16.2171 19.9406 16.3023C19.9533 16.7184 19.9155 17.1356 19.9873 17.5505C20.1888 18.7158 21.0916 19.6941 22.2011 19.9412C23.4161 20.2115 24.6445 19.7445 25.3391 18.7487C25.7735 18.1259 25.9267 17.4283 25.8916 16.7599L25.8927 16.7595ZM25.8553 15.0806C25.7996 14.7221 25.7066 14.3969 25.5387 14.0974C24.8393 12.8492 23.5226 12.3053 22.0759 12.6765C20.8778 12.9838 20.0509 13.9606 19.9507 15.1158C19.9365 15.2795 19.9615 15.3416 20.1473 15.3281C20.6079 15.2948 21.0609 15.2257 21.5084 15.1154C22.4957 14.8717 23.4471 14.5356 24.3125 13.9902C24.6864 13.7546 24.9424 13.826 25.0991 14.2361C25.2411 14.6085 25.5066 14.866 25.855 15.0802L25.8553 15.0806Z" fill="#0F0E5B"/>
<path d="M10.7907 25.6165C10.8228 24.9133 11.2168 24.2542 12.0086 23.8875C12.8004 23.5204 13.5484 23.6654 14.2142 24.2232C14.2991 24.2942 14.3394 24.3365 14.4475 24.2378C15.2725 23.4864 16.4707 23.52 17.255 24.3066C18.0265 25.0804 18.0834 26.3585 17.335 27.1447C16.4553 28.0688 15.5406 28.9589 14.6366 29.8595C14.4464 30.049 14.1944 30.0464 14.0041 29.8576C13.0991 28.9581 12.1944 28.0583 11.2979 27.1503C10.9566 26.8045 10.7936 26.3264 10.7903 25.6168L10.7907 25.6165ZM16.9705 25.7694C16.9693 25.2262 16.5951 24.7421 16.0789 24.6165C15.5402 24.4856 15.0527 24.7256 14.7918 25.2591C14.6923 25.4624 14.566 25.6213 14.3178 25.6165C14.0688 25.6116 13.9439 25.4479 13.8579 25.24C13.8 25.1006 13.7237 24.9746 13.6086 24.8725C13.1413 24.4587 12.4542 24.4897 12.0079 24.9462C11.5667 25.3974 11.5439 26.1305 11.9723 26.5667C12.7185 27.3264 13.4744 28.0763 14.2224 28.834C14.2979 28.9107 14.3372 28.9092 14.412 28.8337C15.1522 28.0856 15.8972 27.3421 16.6396 26.5955C16.8662 26.3679 16.9712 26.089 16.9705 25.769V25.7694Z" fill="#0F0E5B"/>
<path d="M28.4445 24.9424C28.4445 24.6186 28.4363 24.2945 28.4464 23.9708C28.4591 23.5641 28.2841 23.2426 27.957 23.04C27.2012 22.5719 26.4101 22.1678 25.5641 21.8815C25.4288 21.8358 25.3335 21.8534 25.2113 21.9454C24.7283 22.3087 24.1668 22.4904 23.5746 22.5719C22.8513 22.6717 22.1339 22.6489 21.4363 22.4056C21.141 22.3028 20.8557 22.1727 20.6318 21.9491C20.5227 21.8403 20.4169 21.8287 20.2812 21.8635C19.7716 21.9943 19.2991 22.2145 18.8397 22.4631C18.501 22.6463 18.1701 22.8444 17.837 23.0381C17.6172 23.1656 17.375 23.1214 17.2438 22.9267C17.1159 22.7364 17.1462 22.4527 17.3481 22.3282C18.2471 21.7727 19.1552 21.2317 20.1982 20.9779C20.5585 20.89 20.8767 20.9259 21.1544 21.2175C21.4281 21.505 21.7873 21.6545 22.1817 21.7009C22.7028 21.7626 23.2243 21.7745 23.7421 21.6669C24.1406 21.5843 24.4927 21.4014 24.7989 21.139C25.0187 20.9506 25.2572 20.9095 25.529 20.9671C26.107 21.0889 26.6326 21.3446 27.1555 21.6041C27.5227 21.7861 27.886 21.9779 28.2404 22.1839C28.9522 22.5973 29.3395 23.2067 29.332 24.0478C29.3264 24.7016 29.3339 25.3558 29.329 26.0097C29.3264 26.3843 29.0464 26.5996 28.7279 26.4837C28.544 26.4168 28.4434 26.2579 28.4427 26.0261C28.4415 25.665 28.4427 25.3035 28.4427 24.9424H28.4449H28.4445Z" fill="#0F0E5B"/>
<path d="M0.001142 25.2725C-0.00670847 24.6467 0.0284317 24.0265 0.303572 23.4489C0.808245 22.3895 1.66133 21.7248 2.7417 21.3259C2.96264 21.2444 3.19067 21.1813 3.41684 21.114C3.73236 21.0205 3.91441 21.0915 4.05796 21.3899C4.26918 21.8284 4.58619 22.1562 5.02768 22.357C5.94282 22.7727 7.02806 22.4519 7.57385 21.6074C7.63441 21.5136 7.68152 21.4115 7.73871 21.3155C7.85497 21.1207 8.05124 21.0313 8.2617 21.0882C9.43217 21.4048 10.4232 21.9947 11.1447 22.9921C11.3215 23.2362 11.3043 23.499 11.0995 23.6553C10.8939 23.8123 10.6262 23.7727 10.4482 23.5282C9.94843 22.8418 9.30544 22.3607 8.4961 22.0971C8.3746 22.0575 8.32488 22.0833 8.25647 22.1786C7.0718 23.828 4.63441 23.8224 3.4789 22.1682C3.42731 22.0942 3.38544 22.0467 3.28675 22.0766C2.3174 22.37 1.52974 22.8882 1.09796 23.8448C0.955535 24.1603 0.890114 24.4949 0.889366 24.8414C0.888619 25.2276 0.890488 25.6138 0.888619 25.9996C0.887123 26.3069 0.707684 26.511 0.441142 26.514C0.174226 26.517 -0.000727162 26.3128 0.000768165 26.0007C0.001142 25.8762 0.001142 25.7517 0.00151583 25.6272C0.00151583 25.5087 0.00151583 25.3906 0.00151583 25.2721L0.001142 25.2725Z" fill="#0F0E5B"/>
<path d="M14.3249 13.5341C15.0236 12.5356 15.7653 11.5972 16.3245 10.5363C16.458 10.2832 16.6277 10.2115 16.8756 10.2941C17.83 10.6129 18.772 10.9644 19.6857 11.3883C19.8509 11.4649 19.9604 11.5793 19.9885 11.7599C20.0135 11.921 19.9563 12.0574 19.8277 12.155C19.6737 12.2724 19.507 12.2645 19.3346 12.1875C18.7223 11.9139 18.104 11.6544 17.4681 11.4391C17.3328 11.3935 17.1948 11.3539 17.0629 11.3001C16.984 11.2679 16.9459 11.2787 16.9021 11.3546C16.3586 12.2926 15.7077 13.1576 15.0741 14.0346C14.9466 14.2111 14.818 14.3875 14.6786 14.5543C14.4752 14.798 14.1466 14.7995 13.9586 14.5412C13.1971 13.4963 12.406 12.4713 11.7541 11.3513C11.6939 11.2481 11.6449 11.2855 11.578 11.3072C10.8333 11.5487 10.1025 11.8268 9.38959 12.1513C9.36679 12.1617 9.34436 12.1718 9.32155 12.1815C9.05202 12.2986 8.8038 12.2305 8.69389 12.0088C8.57838 11.7759 8.67669 11.5281 8.95034 11.3972C9.87071 10.9572 10.8322 10.6208 11.7945 10.2877C12.0188 10.21 12.1922 10.281 12.3081 10.5057C12.8531 11.5606 13.603 12.4791 14.2636 13.4571C14.2767 13.4769 14.2931 13.4944 14.3245 13.5337L14.3249 13.5341Z" fill="#0F0E5B"/>
<path d="M15.2426 11.1341C15.2426 11.3019 15.2382 11.4698 15.2445 11.6376C15.2479 11.7296 15.2135 11.755 15.1264 11.7535C14.9264 11.7505 14.7473 11.6802 14.5832 11.5793C14.3955 11.4638 14.2258 11.4563 14.0355 11.5767C13.8897 11.6694 13.7256 11.7322 13.5488 11.7528C13.4288 11.767 13.3682 11.7415 13.3727 11.5984C13.3828 11.2754 13.3802 10.952 13.3731 10.629C13.3705 10.5176 13.4011 10.4903 13.5099 10.5105C13.754 10.5561 13.9582 10.6911 14.1727 10.7991C14.2804 10.8533 14.3593 10.8492 14.4654 10.7972C14.6759 10.6941 14.8729 10.5587 15.1107 10.5143C15.2161 10.4944 15.2539 10.5158 15.2467 10.6309C15.2367 10.798 15.2441 10.9662 15.2441 11.1341H15.2423H15.2426Z" fill="#09CFAF"/>
<path d="M5.71584 12.5374C7.42051 12.4328 8.68593 13.8503 8.83621 15.2586C8.87696 15.6414 8.93677 15.6548 8.49603 15.5771C8.04631 15.4974 7.64556 15.3045 7.30089 14.9999C7.15509 14.8713 7.08107 14.7053 7.01715 14.5262C6.91771 14.2474 6.77902 14.1442 6.55247 14.1389C6.37042 14.1348 6.2235 14.2111 6.15696 14.37C5.85004 15.1045 5.22836 15.4474 4.53117 15.6948C3.91098 15.915 3.265 15.9434 2.61453 15.9345C2.46537 15.9326 2.5035 15.8346 2.50089 15.7546C2.44556 13.97 3.86687 12.4436 5.71584 12.5374Z" fill="#09CFAF"/>
<path d="M3.23248 19.5263C2.72781 19.4665 2.3166 19.2964 1.99361 18.9375C1.9551 18.8949 1.94837 18.8627 1.96744 18.807C2.18164 18.1756 2.31248 17.5256 2.39211 16.8646C2.39847 16.8108 2.39435 16.751 2.48183 16.7551C2.57118 16.7596 2.57529 16.8123 2.57566 16.8803C2.57641 17.2777 2.55772 17.6755 2.62389 18.0706C2.71136 18.5928 2.90837 19.0695 3.23248 19.5263Z" fill="#09CFAF"/>
<path d="M8.51001 19.4867C8.60683 19.2717 8.75973 19.0897 8.85693 18.8732C9.05132 18.4411 9.14179 17.9888 9.16384 17.5166C9.24982 17.9573 9.38141 18.3831 9.52384 18.8056C9.5601 18.9136 9.49805 18.9704 9.4345 19.028C9.17169 19.2665 8.86889 19.4291 8.51711 19.4942L8.51001 19.4867Z" fill="#09CFAF"/>
<path d="M8.51738 19.494C8.51065 19.4985 8.50392 19.503 8.49719 19.5071C8.50168 19.5004 8.50616 19.4937 8.51028 19.4866L8.51738 19.4937V19.494Z" fill="#09CFAF"/>
<path d="M16.9705 25.7691C16.9713 26.0891 16.8662 26.3676 16.6397 26.5957C15.8976 27.3418 15.1526 28.0858 14.412 28.8338C14.3373 28.9093 14.298 28.9108 14.2225 28.8342C13.4745 28.0768 12.7182 27.3269 11.9724 26.5669C11.5436 26.1302 11.5668 25.3972 12.0079 24.9463C12.4543 24.4899 13.1417 24.4592 13.6087 24.8727C13.7238 24.9747 13.8001 25.1007 13.858 25.2402C13.9444 25.448 14.0689 25.6117 14.3178 25.6166C14.5664 25.6215 14.6924 25.4626 14.7918 25.2592C15.0528 24.7258 15.5403 24.4858 16.0789 24.6166C16.5952 24.7422 16.9694 25.2263 16.9705 25.7695V25.7691Z" fill="#09CFAF"/>
</g>
<defs>
<clipPath id="clip0_12937_28362">
<rect width="29.3323" height="30" fill="white"/>
</clipPath>
</defs>
</svg>
