<svg width="29" height="29" viewBox="0 0 29 29" fill="none" xmlns="http://www.w3.org/2000/svg">
<g clip-path="url(#clip0_12960_961)">
<path d="M24.4686 22.9321H15.0889C14.2719 22.9321 13.6044 22.2646 13.6044 21.4476V17.9198C13.6044 17.1028 14.2719 16.4353 15.0889 16.4353H24.4686C25.2856 16.4353 25.9531 17.1028 25.9531 17.9198V21.4476C25.9531 22.2646 25.2811 22.9321 24.4686 22.9321Z" fill="#8181FF"/>
<path d="M17.4101 25.9754H6.18338C4.44063 25.9754 3.02408 24.5573 3.02408 22.8161V20.1989C3.02408 16.6439 5.91607 13.752 9.47104 13.752H14.1224C17.6774 13.752 20.5694 16.6439 20.5694 20.1989V22.8161C20.5694 24.5588 19.1528 25.9754 17.4101 25.9754ZM9.47104 14.9586C6.58206 14.9586 4.23222 17.3084 4.23222 20.1974V22.8145C4.23222 23.8898 5.10813 24.7657 6.18338 24.7657H17.4116C18.4868 24.7657 19.3627 23.8898 19.3627 22.8145V20.1974C19.3627 17.3084 17.0129 14.9586 14.1239 14.9586H9.47255H9.47104Z" fill="#0F0E5B"/>
<path d="M11.8088 12.0909C9.30796 12.0909 7.27374 10.0567 7.27374 7.55582C7.27374 5.05497 9.30796 3.02075 11.8088 3.02075C14.3097 3.02075 16.3439 5.05497 16.3439 7.55582C16.3439 10.0567 14.3097 12.0909 11.8088 12.0909ZM11.8088 4.2289C9.97395 4.2289 8.48189 5.72096 8.48189 7.55582C8.48189 9.39069 9.97395 10.8828 11.8088 10.8828C13.6437 10.8828 15.1357 9.39069 15.1357 7.55582C15.1357 5.72096 13.6437 4.2289 11.8088 4.2289Z" fill="#0F0E5B"/>
<path d="M10.5298 22.4838H6.38892C6.05517 22.4838 5.78485 22.2135 5.78485 21.8797C5.78485 21.546 6.05517 21.2756 6.38892 21.2756H10.5298C10.8636 21.2756 11.1339 21.546 11.1339 21.8797C11.1339 22.2135 10.8636 22.4838 10.5298 22.4838Z" fill="#0F0E5B"/>
</g>
<defs>
<clipPath id="clip0_12960_961">
<rect width="29" height="28.9955" rx="8" fill="white"/>
</clipPath>
</defs>
</svg>
