<svg width="27" height="25" viewBox="0 0 27 25" fill="none" xmlns="http://www.w3.org/2000/svg">
<path d="M22.3424 0C21.177 0 20.229 0.671544 19.5772 1.4616C18.9254 0.671544 17.9773 0 16.812 0C14.7184 0 13 1.71836 13 3.812C13 4.42429 13.158 5.03658 13.4345 5.56986C13.5925 5.92539 14.5801 7.78201 18.7081 11.041C18.9451 11.2385 19.2414 11.3372 19.5377 11.3372C19.8339 11.3372 20.1302 11.2385 20.3672 11.041C23.2114 8.78933 24.5743 7.20922 25.226 6.28091C25.6211 5.72787 26.1346 4.87857 26.1346 3.812C26.1544 1.71836 24.436 0 22.3424 0Z" fill="#8383F6"/>
<path d="M24.525 18.9499C24.5217 20.3713 24.536 21.7947 24.5143 23.2161C24.3948 23.8255 23.9688 24.34 23.3401 24.4566L1.50803 24.4705C0.616234 24.3199 0.109149 23.5141 0.048986 22.6554C-0.0193621 21.6805 -0.0132231 20.1924 0.048986 19.2139C0.202872 16.7914 2.35932 15.309 4.51371 14.7156C5.1399 14.5433 5.20907 14.8723 5.64412 15.1776C7.16456 16.2442 9.31487 16.3379 10.9339 15.4064C11.2433 15.2284 11.5605 14.8813 11.8225 14.7397C12.0607 14.6108 12.2436 14.6566 12.4843 14.7229C14.4365 15.2611 16.7173 16.7505 16.8741 18.9679C16.9502 20.0471 16.9293 21.6064 16.8729 22.6963C16.8598 22.9513 16.8127 23.1645 16.7493 23.4105H23.0725C23.3737 23.4105 23.4277 23.1645 23.4629 22.9006V9.63652C23.4605 9.38113 23.2857 9.20924 23.0336 9.20678L17.7704 9.22725C17.5613 9.26408 17.5019 9.33161 17.3623 9.47404C16.8442 10.0028 16.2098 11.2143 15.3373 11.2143H14.1299C14.1799 10.8578 14.2507 10.5083 14.2936 10.1502C14.5527 10.1432 14.8793 10.1808 15.129 10.1465C16.0871 10.0147 16.3985 8.28838 17.5928 8.14923C19.4283 8.25932 21.4665 7.98716 23.2788 8.1435C23.8632 8.19384 24.2933 8.57692 24.4648 9.12657C24.57 12.3868 24.5328 15.679 24.5254 18.9499H24.525ZM4.69707 15.812C2.8529 16.4263 1.23014 17.2956 1.11309 19.4594C1.06561 20.334 1.03042 21.8033 1.11554 22.6534C1.16015 23.0999 1.3521 23.3982 1.82972 23.4126H15.1343C15.4875 23.3999 15.7969 23.0905 15.8096 22.7373C15.7416 21.5758 15.8943 20.3238 15.8096 19.1733C15.6708 17.2907 13.8647 16.317 12.2686 15.7977C10.1735 17.5232 6.77575 17.6173 4.69707 15.812Z" fill="#1C2368"/>
<path d="M7.94118 4.02376C11.9672 3.66933 13.9665 7.34131 13.0129 10.9372C12.3048 13.6068 9.60691 15.5144 6.86398 14.4491C2.26583 12.663 2.57032 4.49688 7.94118 4.02417V4.02376ZM7.89984 5.12838C3.84479 5.54134 3.74902 12.1232 7.27325 13.4251C9.55125 14.2666 11.5718 12.5951 12.0228 10.3973C12.6167 7.50256 11.1093 4.80138 7.89984 5.12838Z" fill="#1C2368"/>
<path d="M15.9605 12.6978L21.4721 12.6917C22.0079 12.7886 22.1368 13.4545 21.6424 13.7144C19.7426 13.8004 17.8202 13.7312 15.9122 13.7496C15.3834 13.6682 15.3511 12.8005 15.9605 12.6978Z" fill="#1C2368"/>
<path d="M17.4744 15.3168L21.4722 15.311C22.0714 15.4236 22.1217 16.2147 21.5139 16.369H17.4671C16.9317 16.2037 16.9395 15.4813 17.474 15.3168H17.4744Z" fill="#1C2368"/>
<path d="M18.4976 17.936C19.4131 18.0175 20.6344 17.7932 21.5139 17.9291C22.0804 18.0167 22.1098 18.9003 21.4722 18.987C20.5714 19.1098 19.4185 18.9052 18.4907 18.9879C17.9066 18.845 17.9328 18.0772 18.4976 17.936Z" fill="#1C2368"/>
</svg>
