<svg width="150" height="150" viewBox="0 0 150 150" fill="none" xmlns="http://www.w3.org/2000/svg">
<g clip-path="url(#clip0_11030_27668)">
<path d="M115.576 82.0312H25.2004C22.0425 82.0312 19.4824 84.5913 19.4824 87.7493V104.82C19.4824 107.978 22.0425 110.538 25.2004 110.538H115.576C118.734 110.538 121.294 107.978 121.294 104.82V87.7493C121.294 84.5913 118.734 82.0312 115.576 82.0312Z" fill="#09CFAF"/>
<path d="M64.8497 116.359H19.2544V108.848C19.2544 104.704 22.6225 101.336 26.7661 101.336H57.3458C61.4894 101.336 64.8575 104.704 64.8575 108.848V116.359H64.8497ZM25.5207 110.093H58.5834V108.848C58.5834 108.158 58.0272 107.602 57.3379 107.602H26.7583C26.069 107.602 25.5129 108.158 25.5129 108.848V110.093H25.5207Z" fill="#0F0E5B"/>
<path d="M64.701 125.113H19.4112C16.8185 125.113 14.7114 123.006 14.7114 120.414V117.602C14.7114 113.458 18.0796 110.09 22.2232 110.09H61.8968C66.0404 110.09 69.4086 113.458 69.4086 117.602V120.414C69.4086 123.006 67.3015 125.113 64.7088 125.113H64.701ZM20.9777 118.847H63.1344V117.602C63.1344 116.912 62.5783 116.356 61.889 116.356H22.2232C21.5339 116.356 20.9777 116.912 20.9777 117.602V118.847Z" fill="#0F0E5B"/>
<path d="M52.5367 85.5872C50.1555 85.5872 47.7743 84.6786 45.9649 82.8692L28.0432 64.9475C26.2887 63.193 25.3174 60.8588 25.3174 58.3757C25.3174 55.8927 26.2808 53.5585 28.0432 51.8039C31.6699 48.1851 37.5602 48.1851 41.1868 51.8039L59.1085 69.7256C60.8631 71.4802 61.8344 73.8144 61.8344 76.2974C61.8344 78.7805 60.8709 81.1147 59.1085 82.8692C57.2991 84.6786 54.9179 85.5872 52.5367 85.5872ZM34.615 55.3522C33.8396 55.3522 33.0641 55.6499 32.4767 56.2374C31.9048 56.8092 31.5915 57.569 31.5915 58.3757C31.5915 59.1825 31.9048 59.9423 32.4767 60.5141L50.3983 78.4358C51.5811 79.6186 53.5002 79.6186 54.6751 78.4358C55.2469 77.864 55.5602 77.1042 55.5602 76.2974C55.5602 75.4906 55.2469 74.7308 54.6751 74.159L36.7534 56.2374C36.1659 55.6499 35.3905 55.3522 34.615 55.3522Z" fill="#0F0E5B"/>
<path d="M70.5211 76.436C68.4611 76.436 66.3932 75.6527 64.8266 74.0783L63.0799 72.3315C59.9389 69.1906 59.9389 64.0757 63.0799 60.9347L73.1373 50.8772C74.6569 49.3577 76.6856 48.5195 78.8318 48.5195C80.978 48.5195 83.0068 49.3577 84.5263 50.8772L86.2731 52.624C89.4141 55.765 89.4141 60.8799 86.2731 64.0208L76.2156 74.0783C74.6491 75.6527 72.5812 76.436 70.5211 76.436ZM78.8318 54.7859C78.354 54.7859 77.9075 54.9738 77.5629 55.3107L67.5055 65.3681C66.8083 66.0652 66.8083 67.201 67.5055 67.8981L69.2522 69.6449C69.9493 70.342 71.0851 70.342 71.7822 69.6449L81.8397 59.5874C82.5368 58.8903 82.5368 57.7545 81.8397 57.0574L80.0929 55.3107C79.7561 54.9738 79.3096 54.7859 78.824 54.7859H78.8318Z" fill="#0F0E5B"/>
<path d="M56.6968 76.1749L34.7412 54.2193L66.4253 22.5273L88.3809 44.483L56.689 76.1749H56.6968ZM43.6002 54.2193L56.6968 67.3159L79.5219 44.4908L66.4253 31.3942L43.6002 54.2193Z" fill="#0F0E5B"/>
<path d="M88.5054 49.6146C86.1242 49.6146 83.743 48.706 81.9336 46.8966L64.012 28.9749C60.3932 25.3561 60.3932 19.4579 64.012 15.8313C67.6386 12.2125 73.5289 12.2125 77.1556 15.8313L95.0772 33.753C98.7039 37.3718 98.7039 43.2699 95.0772 46.8966C93.2678 48.706 90.8866 49.6146 88.5054 49.6146ZM70.5838 19.3796C69.8083 19.3796 69.0328 19.6772 68.4454 20.2647C67.2626 21.4475 67.2626 23.3665 68.4454 24.5415L86.367 42.4631C87.5498 43.6459 89.4689 43.6459 90.6438 42.4631C91.8187 41.2804 91.8266 39.3613 90.6438 38.1864L72.7221 20.2647C72.1347 19.6772 71.3592 19.3796 70.5838 19.3796Z" fill="#0F0E5B"/>
<path d="M124.287 121.576C121.929 121.576 119.704 120.659 118.036 118.991L70.2476 71.2022L83.3912 58.0586L131.18 105.847C134.626 109.294 134.626 114.894 131.18 118.341L130.53 118.991C128.861 120.659 126.644 121.576 124.287 121.576ZM79.1066 71.1944L122.469 114.557C123.441 115.529 125.133 115.529 126.104 114.557L126.754 113.915C127.757 112.912 127.757 111.283 126.754 110.281L83.3912 66.9176L79.1144 71.1944H79.1066Z" fill="#0F0E5B"/>
<path d="M59.7435 55.054C58.9446 55.054 58.1378 54.7485 57.5268 54.1375C56.3049 52.9156 56.3049 50.9339 57.5268 49.7041L61.4902 45.7407C62.7122 44.5187 64.6939 44.5187 65.9237 45.7407C67.1456 46.9626 67.1456 48.9443 65.9237 50.1741L61.9602 54.1375C61.3493 54.7485 60.5425 55.054 59.7435 55.054Z" fill="#09CFAF"/>
</g>
<defs>
<clipPath id="clip0_11030_27668">
<rect width="150" height="150" fill="white"/>
</clipPath>
</defs>
</svg>
