<svg width="192" height="192" viewBox="0 0 192 192" fill="none" xmlns="http://www.w3.org/2000/svg">
<path d="M102.7 76.2998H69.5C64.3 76.2998 60 80.5998 60 85.7998V126.5C60 131.7 64.3 136 69.5 136H102.8C108 136 112.3 131.7 112.3 126.5V85.7998C112.3 80.5998 108 76.2998 102.7 76.2998Z" fill="#09CFAF"/>
<path d="M172.5 92.4996C175.3 92.2996 177.6 89.8996 177.6 86.9996V67.5996C177.6 62.0996 174.6 57.2996 170.3 54.6996L168.6 44.2996C168 40.3996 165.9 36.9996 162.7 34.6996C159.6 32.3996 155.7 31.4996 151.9 32.1996L30 52.5L28.4 52.6996C20.2 52.6996 13.6 59.3996 13.6 67.5996V86.9996C13.6 89.8996 15.8 92.2996 18.7 92.4996C25.8 92.9996 31.4 99.0996 31.4 106.4C31.4 113.7 25.8 119.7 18.7 120.3C15.9 120.5 13.6 122.9 13.6 125.8V145.2C13.6 153.4 20.3 160.1 28.4 160.1H162.8C171 160.1 177.6 153.4 177.6 145.2V125.8C177.6 122.9 175.4 120.5 172.5 120.3C165.4 119.8 159.8 113.7 159.8 106.4C159.9 99.0996 165.4 92.9996 172.5 92.4996ZM153.1 39.8996C154.8 39.5996 156.6 39.9996 158 41.0996C159.5 42.1996 160.4 43.6996 160.7 45.4996L161.9 52.5996H75.5L153.1 39.8996ZM169.6 127.9V145.1C169.6 148.9 166.5 152 162.8 152H28.4C24.6 152 21.6 148.9 21.6 145.1V127.9C31.7 126 39.3 117 39.3 106.4C39.3 95.7996 31.7 86.7996 21.6 84.8996V67.5996C21.6 63.7996 24.7 60.6996 28.4 60.6996H162.8C166.6 60.6996 169.6 63.7996 169.6 67.5996V84.8996C159.5 86.7996 151.9 95.7996 151.9 106.4C151.9 116.9 159.5 126 169.6 127.9Z" fill="#0F0E5B"/>
<path d="M128.6 110.3H95C92.8 110.3 91 108.5 91 106.3C91 104.1 92.8 102.3 95 102.3H128.6C130.8 102.3 132.6 104.1 132.6 106.3C132.6 108.5 130.8 110.3 128.6 110.3Z" fill="#0F0E5B"/>
<path d="M128.6 94.0996H95C92.8 94.0996 91 92.2996 91 90.0996C91 87.8996 92.8 86.0996 95 86.0996H128.6C130.8 86.0996 132.6 87.8996 132.6 90.0996C132.6 92.2996 130.8 94.0996 128.6 94.0996Z" fill="#0F0E5B"/>
<path d="M120.1 126.5H95C92.8 126.5 91 124.7 91 122.5C91 120.3 92.8 118.5 95 118.5H120C122.2 118.5 124 120.3 124 122.5C124 124.7 122.3 126.5 120.1 126.5Z" fill="#0F0E5B"/>
</svg>
