<?xml version="1.0" encoding="utf-8"?>
<!-- Generator: Adobe Illustrator 27.5.0, SVG Export Plug-In . SVG Version: 6.00 Build 0)  -->
<svg version="1.1" id="Layer_2_00000041997888136013792700000009697460629474577567_"
	 xmlns="http://www.w3.org/2000/svg" xmlns:xlink="http://www.w3.org/1999/xlink" x="0px" y="0px" viewBox="0 0 192 192"
	 style="enable-background:new 0 0 192 192;" xml:space="preserve">
<style type="text/css">
	.st0{fill:#09CFAF;}
	.st1{fill:#0F0E5B;}
	.st2{fill:none;}
</style>
<g id="Layer_10">
	<path class="st0" d="M31.6,50L93,76.8c6.2,3,6.3,11.8,0.1,14.9l-61.5,27.7c-5.5,2.8-12-1.3-12-7.4V57.5
		C19.7,51.3,26.1,47.3,31.6,50L31.6,50z"/>
	<path class="st0" d="M136.8,159.4h-10.4c-2.2,0-4-1.8-4-4s1.8-4,4-4h10.4c2.2,0,4,1.8,4,4S139,159.4,136.8,159.4z"/>
	<path class="st1" d="M107.6,101.9c9.8,0,17.9-8,17.9-17.9s-8-17.9-17.9-17.9s-17.9,8-17.9,17.9S97.8,101.9,107.6,101.9z
		 M107.6,74.2c5.4,0,9.9,4.4,9.9,9.9s-4.4,9.9-9.9,9.9s-9.9-4.4-9.9-9.9S102.2,74.2,107.6,74.2z"/>
	<path class="st1" d="M143.7,136.9c16.8-11.5,27.9-30.9,27.9-52.8c0-35.3-28.7-64-64-64c-26.4,0-49.1,16.1-58.9,39
		c-0.1,0.2-0.2,0.4-0.3,0.5c-0.1,0.2-0.2,0.5-0.2,0.8c-2.9,7.3-4.6,15.3-4.6,23.7s1.7,16.7,4.7,24.1c0,0.2,0.1,0.3,0.1,0.4
		c0.1,0.1,0.1,0.3,0.2,0.4c4.8,11.4,12.8,21.1,22.9,28l-13.9,13.9c-3.6,3.6-4.7,8.9-2.7,13.6c2,4.8,6.4,7.7,11.5,7.7h0l82.2-0.1
		c5.1,0,9.6-3,11.5-7.7c2-4.8,0.9-10-2.7-13.6L143.7,136.9L143.7,136.9z M132.7,134.1l-5.3-12.9c7.4-3.9,13.5-10,17.4-17.4l12.9,5.3
		C152.2,119.9,143.5,128.7,132.7,134.1z M51.6,84.1c0-6.2,1-12.1,2.9-17.6l12.9,5.3c-1.2,3.9-1.8,8-1.8,12.3s0.7,8.4,1.8,12.4
		l-12.9,5.3C52.7,96.2,51.6,90.3,51.6,84.1L51.6,84.1z M73.6,84.1c0-14.1,8.6-26.2,20.7-31.3c0.1,0,0.2,0,0.3-0.1
		c0.1,0,0.1-0.1,0.2-0.1c4-1.6,8.3-2.5,12.8-2.5s8.8,0.9,12.7,2.5c0.1,0,0.2,0.1,0.3,0.2c0.1,0,0.2,0.1,0.4,0.1
		c8.1,3.5,14.5,10,18,18c0,0.1,0.1,0.2,0.1,0.3c0,0.1,0.1,0.2,0.1,0.2c1.6,3.9,2.5,8.2,2.5,12.7s-0.9,8.7-2.4,12.7
		c-0.1,0.1-0.1,0.3-0.2,0.4c-0.1,0.2-0.1,0.3-0.1,0.4c-5.2,12.1-17.3,20.6-31.3,20.6C88.8,118.1,73.6,102.8,73.6,84.1L73.6,84.1z
		 M163.6,84.1c0,6.2-1,12.1-2.9,17.7l-12.9-5.3c1.2-3.9,1.9-8.1,1.9-12.4s-0.6-8.4-1.8-12.3l12.9-5.3
		C162.6,72,163.6,77.9,163.6,84.1L163.6,84.1z M107.6,126.1c4.3,0,8.4-0.7,12.3-1.8l5.3,12.9c-5.6,1.9-11.5,2.9-17.7,2.9
		s-12.1-1-17.7-2.9l5.3-12.9C99.2,125.5,103.3,126.1,107.6,126.1z M157.7,59l-12.9,5.3c-3.9-7.4-10-13.5-17.4-17.5l5.4-12.9
		C143.5,39.4,152.3,48.3,157.7,59z M125.3,31L120,43.9c-3.9-1.2-8-1.8-12.3-1.8s-8.4,0.7-12.4,1.8L89.9,31
		c5.6-1.9,11.5-2.9,17.7-2.9S119.8,29.1,125.3,31z M82.5,34L87.9,47c-7.4,4-13.5,10-17.4,17.5l-12.9-5.3C63,48.3,71.8,39.5,82.5,34z
		 M57.6,109.2l12.9-5.3c3.9,7.4,10,13.5,17.4,17.4l-5.3,12.9C71.8,128.7,63,119.9,57.6,109.2z M152.9,161.3
		c-0.3,0.6-1.4,2.8-4.1,2.8l-82.2,0.1l0,0c-2.8,0-3.9-2.1-4.1-2.8s-1-2.9,1-4.9l15.4-15.4c1.3,0.7,2.6,1.3,4,1.9
		c0.1,0.1,0.8,0.4,1,0.4c7.4,3,15.4,4.6,23.9,4.6s16.6-1.7,24-4.7c0.2,0,0.7-0.2,0.8-0.3c1.4-0.6,2.8-1.3,4.2-2l15.3,15.3
		C153.9,158.3,153.1,160.6,152.9,161.3L152.9,161.3z"/>
	<rect class="st2" width="192" height="192"/>
</g>
</svg>
