<svg width="41" height="41" viewBox="0 0 41 41" fill="none" xmlns="http://www.w3.org/2000/svg">
<path fill-rule="evenodd" clip-rule="evenodd" d="M33.0208 26.9536L23.4167 23.5786C22.5 23.2453 21.875 22.3703 21.875 21.4119V16.8078C21.875 15.8286 22.5 14.9744 23.4167 14.6411L33.0208 11.2661C34.5208 10.7453 36.0833 11.8494 36.0833 13.4328V24.7869C36.0833 26.3703 34.5208 27.4744 33.0208 26.9536Z" fill="#09CFAF"/>
<path d="M32.0625 7.5579C31.3333 7.03707 30.375 6.89124 29.5208 7.1829L10.2292 13.8704H4.72917C3.1875 13.8704 1.9375 15.1204 1.9375 16.6621V21.5162C1.9375 22.9746 3.04167 24.1621 4.47917 24.3079L5.75 31.3704C6 32.6829 7.16667 33.6412 8.5 33.6412H9.70833C10.5417 33.6412 11.3333 33.2662 11.875 32.6204C12.4167 31.9746 12.625 31.1412 12.4583 30.3287L11.4375 24.7454L29.5208 31.0162C29.8125 31.1204 30.125 31.1621 30.4375 31.1621C31.0208 31.1621 31.5833 30.9954 32.0625 30.6412C32.7917 30.1204 33.2292 29.2662 33.2292 28.3704V9.82874C33.2292 8.9329 32.7917 8.07874 32.0625 7.5579ZM11.1875 15.3079L27.2708 9.72457V28.4537L11.1875 22.8704V15.3079ZM3.58333 21.5162V16.6621C3.58333 16.0371 4.08333 15.5371 4.70833 15.5371H9.52083V22.6412H4.72917C4.10417 22.6412 3.58333 22.1412 3.58333 21.5162ZM10.5625 31.5579C10.3542 31.8287 10.0208 31.9746 9.6875 31.9746H8.47917C7.9375 31.9746 7.47917 31.5787 7.375 31.0579L6.14583 24.3079H9.66667L10.8125 30.6204C10.875 30.9537 10.7917 31.3079 10.5625 31.5579ZM31.5625 28.3496C31.5625 28.7246 31.3958 29.0579 31.0833 29.2662C30.7708 29.4746 30.3958 29.5371 30.0625 29.4121L28.9583 29.0162V9.14124L30.0625 8.76624C30.4167 8.64124 30.7917 8.70374 31.0833 8.91207C31.3958 9.1204 31.5625 9.45374 31.5625 9.82874V28.3496Z" fill="#0F0E5B"/>
</svg>
