<svg width="41" height="41" viewBox="0 0 41 41" fill="none" xmlns="http://www.w3.org/2000/svg">
<path fill-rule="evenodd" clip-rule="evenodd" d="M10.2917 12.2036H30.4375C31.5625 12.2036 32.4792 11.2869 32.4792 10.1411V6.74528C32.4792 5.62028 31.5625 4.70361 30.4375 4.70361H10.2917C9.16667 4.70361 8.25 5.62028 8.25 6.74528V10.1619C8.25 11.2869 9.16667 12.2036 10.2917 12.2036Z" fill="#09CFAF"/>
<path fill-rule="evenodd" clip-rule="evenodd" d="M35.1875 33.7661H5.41667C3.54167 33.7661 2 32.2244 2 30.3494V11.6203C2 9.74528 3.54167 8.20361 5.41667 8.20361H35.1875C37.0625 8.20361 38.6042 9.74528 38.6042 11.6203V30.3494C38.6042 32.2244 37.0625 33.7661 35.1875 33.7661ZM5.41667 9.87028C4.45833 9.87028 3.66667 10.6619 3.66667 11.6203V30.3494C3.66667 31.3078 4.45833 32.0994 5.41667 32.0994H35.1875C36.1458 32.0994 36.9375 31.3078 36.9375 30.3494V11.6203C36.9375 10.6619 36.1458 9.87028 35.1875 9.87028H5.41667ZM25.0208 19.5578H32.8333C33.2917 19.5578 33.6667 19.1828 33.6667 18.7244C33.6667 18.2661 33.2917 17.8911 32.8333 17.8911H25.0208C24.5625 17.8911 24.1875 18.2661 24.1875 18.7244C24.1875 19.1828 24.5625 19.5578 25.0208 19.5578ZM32.8333 22.8911H25.0208C24.5625 22.8911 24.1875 22.5161 24.1875 22.0578C24.1875 21.5994 24.5625 21.2244 25.0208 21.2244H32.8333C33.2917 21.2244 33.6667 21.5994 33.6667 22.0578C33.6667 22.5161 33.2917 22.8911 32.8333 22.8911ZM29.3958 26.2244H25.0208C24.5625 26.2244 24.1875 25.8494 24.1875 25.3911C24.1875 24.9328 24.5625 24.5578 25.0208 24.5578H29.3958C29.8542 24.5578 30.2292 24.9328 30.2292 25.3911C30.2292 25.8494 29.875 26.2244 29.3958 26.2244ZM12.7708 27.7244C13.0208 27.9119 13.3333 28.0161 13.625 28.0161C13.9375 28.0161 14.2292 27.9327 14.5 27.7036C17.5208 25.3286 18.9583 23.6411 19.6458 22.6619C20.0625 22.0786 20.6042 21.1827 20.6042 20.0786C20.6042 17.8702 18.8125 16.0786 16.6042 16.0786C15.3542 16.0786 14.3542 16.8077 13.6667 17.6619C12.9792 16.8077 11.9792 16.0786 10.7292 16.0786C8.52082 16.0786 6.72916 17.8702 6.72916 20.0786C6.72916 20.7244 6.89582 21.3702 7.18749 21.9327C7.35416 22.3077 8.39582 24.2661 12.7708 27.7244ZM8.39582 20.0994C8.39582 18.8077 9.43749 17.7661 10.7292 17.7661C11.625 17.7661 12.4375 18.6411 12.8125 19.4536C12.9583 19.7869 13.3125 19.9952 13.6667 19.9952C14.0208 19.9952 14.3542 19.7869 14.5208 19.4536C14.9167 18.6411 15.7292 17.7869 16.6042 17.7869C17.8958 17.7869 18.9375 18.8286 18.9375 20.1202C18.9375 20.5994 18.7292 21.0994 18.2708 21.7452C17.7708 22.4536 16.5 23.9952 13.625 26.2869C9.52082 23.0161 8.70832 21.2661 8.70832 21.2661L8.66666 21.1827C8.47916 20.8494 8.39582 20.4744 8.39582 20.0994Z" fill="#0F0E5B"/>
</svg>
