<svg width="26" height="21" viewBox="0 0 26 21" fill="none" xmlns="http://www.w3.org/2000/svg">
<rect width="7" height="15" rx="0.9" fill="#8181FF"/>
<path d="M2.57709 10.663C2.58077 8.74388 2.56467 6.82243 2.58905 4.90328C2.78956 3.93106 3.49918 3.13912 4.49762 2.94872C10.0923 2.85628 15.7219 2.85214 21.3161 2.9386C23.1552 2.96711 25.2459 2.48284 25.9192 4.72806C26.0401 9.36842 26.0089 14.0405 25.9353 18.6836C25.7412 19.6779 24.9295 20.4009 23.9338 20.5453C21.8739 20.5582 19.8131 20.5476 17.7537 20.5508C13.4077 20.5577 9.06026 20.5439 4.71377 20.5527C3.64911 20.5297 2.75093 19.6177 2.58215 18.5912C2.57709 15.9486 2.57249 13.3047 2.57709 10.663ZM24.7901 5.46619L19.5031 10.6879C18.9701 11.0631 18.3838 10.4731 18.6335 9.91018L24.1711 4.40981C24.2566 4.24701 23.7305 4.10996 23.6197 4.13065H4.8522L4.37115 4.27138L4.43967 4.40889C6.10634 6.16432 7.96386 7.79557 9.58408 9.58917C9.63099 9.64068 9.72021 9.67011 9.77862 9.74048C10.2955 10.3687 9.61857 11.099 8.9692 10.595L3.86572 5.48873L3.72729 5.4202V18.3203C3.72729 18.3442 3.84871 18.7328 3.87124 18.7742C4.01841 19.0424 4.48842 19.3551 4.80575 19.3574H23.7112C24.104 19.4199 24.7901 18.8156 24.7901 18.4587V5.46665V5.46619Z" fill="#0F0E5B"/>
<path d="M16.2201 11.8745C16.3189 11.9706 16.4045 12.2033 16.4197 12.3417C16.5006 13.084 16.2909 14.1763 16.4302 14.8606C16.559 15.4939 17.1817 15.0675 17.3933 14.695C18.468 12.8021 16.6386 10.5675 14.6431 10.3932C9.61549 9.95487 9.52213 17.7717 14.5562 17.3767C15.1264 17.3321 15.4612 17.0667 15.9009 16.9738C16.4767 16.8519 16.8354 17.5892 16.4657 17.9989C16.2799 18.205 15.5173 18.4151 15.2318 18.4666C11.6229 19.1183 8.83274 16.0513 9.83072 12.5137C11.3268 7.20882 19.6675 8.73016 18.7582 14.2669C18.4933 15.8816 16.8612 17.2314 15.5684 15.6778C14.776 16.4459 13.6368 16.5949 12.7635 15.8595C10.8075 14.2135 12.6421 10.4391 15.0404 11.697C15.1269 11.7425 15.3702 11.943 15.3913 11.9471C15.4672 11.9609 15.5854 11.7434 15.7565 11.7218C15.8977 11.7039 16.118 11.7756 16.2196 11.8745H16.2201ZM13.859 15.2005C14.03 15.2851 14.2347 15.2184 14.4062 15.1572C15.9152 14.6224 15.3716 12.3335 14.0254 12.6154C13.2022 12.7878 12.9479 13.87 13.2238 14.5718C13.3362 14.8575 13.5995 15.0742 13.859 15.2005Z" fill="#0F0E5B"/>
</svg>
