<?xml version="1.0" encoding="UTF-8"?><svg id="Layer_2" xmlns="http://www.w3.org/2000/svg" viewBox="0 0 192.03 192"><defs><style>.cls-1{fill:none;}.cls-2{fill:#09ccac;}.cls-3{fill:#0f0e5b;}</style></defs><g id="Layer_10"><g><path class="cls-2" d="m140,99.97h-40.08c-5.41,0-9.83-4.42-9.83-9.83v-48.3c0-5.41,4.42-9.83,9.83-9.83h40.08c5.41,0,9.83,4.42,9.83,9.83v48.3c0,5.41-4.45,9.83-9.83,9.83Z"/><path class="cls-3" d="m67.24,126.98c.84.19,1.71.29,2.6.29.47,0,.95-.03,1.43-.08l78.37-9.18c5.14-.6,9.31-4.41,10.36-9.48l8.49-40.64c.72-3.46-.11-7.04-2.28-9.83-2.17-2.79-5.44-4.48-8.97-4.63l-102.03-4.35c-3.04-.13-5.91.87-8.18,2.77l-2.01-5.44c-.89-2.4-2.56-4.49-4.71-5.89l-12.39-8.07c-1.85-1.21-4.33-.68-5.54,1.17-1.21,1.85-.68,4.33,1.17,5.54l12.38,8.07c.72.47,1.27,1.17,1.57,1.97l5.66,15.31,15.13,54c.44,1.59,1.19,3.01,2.15,4.23l-4.14,7.43c-2.09,3.76-2.04,8.21.14,11.92,1.55,2.64,3.98,4.51,6.79,5.37-1.57,2.47-2.5,5.4-2.5,8.54,0,8.82,7.17,15.99,15.99,15.99s15.99-7.17,15.99-15.99c0-2.91-.8-5.64-2.16-7.99h39.59c-1.37,2.35-2.16,5.08-2.16,7.99,0,8.82,7.17,15.99,15.99,15.99s15.99-7.17,15.99-15.99c0-3.02-.86-5.84-2.32-8.25,1.53-.56,2.63-2.02,2.63-3.74,0-2.21-1.79-4-4-4h-89.5c-2.06,0-3.1-1.38-3.45-1.97-.35-.59-1.05-2.17-.05-3.97l3.93-7.07Zm17.5,29c0,4.41-3.59,7.99-7.99,7.99s-7.99-3.59-7.99-7.99,3.59-7.99,7.99-7.99,7.99,3.59,7.99,7.99Zm59.26,7.99c-4.41,0-7.99-3.59-7.99-7.99s3.59-7.99,7.99-7.99,7.99,3.59,7.99,7.99-3.59,7.99-7.99,7.99Zm-73.65-44.73c-1.99.22-3.8-.99-4.33-2.91l-7.54-26.91h18.81l4.54,28.48-11.47,1.34Zm41.1-37.82v-21.94l21.75.93-1.97,21.01h-19.79Zm19.04,8l-2.16,23.03-16.88,1.98v-25.01h19.04Zm-27.04-8h-19.34l-3.71-23.26,23.05.98v22.28Zm0,8v25.94l-13.68,1.6-4.39-27.55h18.07Zm45.27,20.64l-12.26,1.44,2.07-22.08h17.31l-3.65,17.48c-.35,1.69-1.75,2.97-3.46,3.17Zm11.19-47.1c.74.95,1.01,2.11.76,3.29l-3.17,15.17h-18.23l1.94-20.67,15.7.67c1.2.05,2.26.6,3,1.55Zm-108.35-4.38c.77-.97,1.91-1.52,3.14-1.52.06,0,.12,0,.18,0l17.37.74,3.76,23.61h-19.77l-5.39-19.25c-.35-1.25-.09-2.56.72-3.58Z"/></g><rect class="cls-1" width="192.03" height="192"/></g></svg>