<?xml version="1.0" encoding="UTF-8"?><svg id="Layer_2" xmlns="http://www.w3.org/2000/svg" width="191.72" height="191.72" viewBox="0 0 191.72 191.72"><defs><style>.cls-1{fill:none;}.cls-2{fill:#09ccac;}.cls-3{fill:#0f0e5b;}</style></defs><g id="Layer_10"><rect class="cls-2" x="19.97" y="63.25" width="93.76" height="50.1" rx="13.38" ry="13.38"/><rect class="cls-1" width="191.72" height="191.72"/><path class="cls-3" d="m121.17,171.86h-59.59c-10.19,0-18.48-8.29-18.48-18.48V38.15c0-10.19,8.29-18.48,18.48-18.48h60.15c10.12,0,18.41,8.23,18.48,18.35l-.02,52.26c0,2.21-1.79,4-4,4h0c-2.21,0-4-1.79-4-4l.02-52.23c-.04-5.71-4.74-10.38-10.48-10.38h-60.15c-5.78,0-10.48,4.7-10.48,10.48v115.23c0,5.78,4.7,10.48,10.48,10.48h59.59c5.74,0,10.44-4.67,10.48-10.41l.27-9.78c.06-2.17,1.84-3.89,4-3.89.04,0,.08,0,.11,0,2.21.06,3.95,1.9,3.89,4.11l-.27,9.69c-.07,10.03-8.36,18.27-18.48,18.27Z"/><path class="cls-3" d="m73.68,74.97c-1.33,0-2.63-.67-3.39-1.88-1.17-1.87-.6-4.34,1.27-5.51.01,0,1.64-1.14,1.64-2.97,0-1.73-1.58-2.75-1.65-2.79-1.92-1.1-2.55-3.53-1.45-5.44,1.1-1.92,3.57-2.56,5.49-1.46,2.08,1.19,5.61,4.58,5.61,9.69,0,6.19-4.84,9.4-5.4,9.75-.66.41-1.39.61-2.12.61Z"/><path class="cls-3" d="m86.99,77.42c-1.07,0-2.14-.43-2.93-1.27-1.51-1.62-1.42-4.15.2-5.65,1.38-1.3,3.41-4.03,3.37-5.72-.04-1.87-2.15-5-3.57-6.52-1.5-1.62-1.42-4.14.2-5.65,1.61-1.5,4.13-1.43,5.64.18.57.61,5.6,6.13,5.73,11.81.13,5.94-5.3,11.17-5.92,11.75-.77.72-1.75,1.07-2.73,1.07Z"/><path class="cls-3" d="m101.43,80.41c-.98,0-1.96-.36-2.73-1.08-1.62-1.51-1.7-4.04-.2-5.65,1.28-1.38,4.63-5.76,4.75-9.35.11-3.11-3.04-7.15-4.59-8.62-1.6-1.52-1.66-4.05-.14-5.66,1.52-1.6,4.05-1.67,5.66-.14.75.71,7.33,7.2,7.07,14.69-.25,7.2-6.22,13.8-6.9,14.53-.79.84-1.86,1.27-2.93,1.27Z"/><circle class="cls-3" cx="91.66" cy="36.02" r="4.01"/><path class="cls-3" d="m154.25,120.1c-2.55-1.05-2.98-1.63-2.98-2.51,0-.82.59-1.71,2.25-1.71.86,0,1.66.16,2.4.48.36.16.76.16,1.13,0,.38-.16.67-.47.82-.87l.07-.18c.28-.74-.06-1.56-.78-1.87-.68-.29-1.43-.49-2.24-.58-.12-.01-.2-.1-.2-.21v-1.01c0-.81-.66-1.47-1.47-1.47s-1.47.66-1.47,1.47v1.22c0,.09-.07.18-.16.2-2.43.65-3.94,2.51-3.94,4.84,0,2.96,2.34,4.29,4.87,5.28,1.9.77,2.68,1.54,2.68,2.65,0,1.22-1.05,2.03-2.6,2.03-1.2,0-2.19-.35-2.8-.64-.38-.18-.82-.19-1.21-.03-.39.16-.69.48-.83.87l-.08.21c-.25.69.07,1.49.73,1.81.84.42,1.89.71,2.96.82.11.01.2.1.2.21v1.11c0,.81.66,1.47,1.5,1.47s1.47-.66,1.47-1.47v-1.31c0-.09.07-.18.16-.2,2.51-.67,4.13-2.67,4.13-5.09,0-2.57-1.37-4.23-4.6-5.55Z"/><path class="cls-3" d="m165.58,147.22h-63.23c-5.23,0-9.49-4.25-9.49-9.48v-41.97c0-5.23,4.25-9.48,9.49-9.48h63.23c5.23,0,9.48,4.25,9.48,9.48v41.97c0,5.23-4.25,9.48-9.48,9.48Zm-63.23-52.94c-.82,0-1.49.67-1.49,1.48v41.97c0,.82.67,1.48,1.49,1.48h63.23c.82,0,1.48-.67,1.48-1.48v-41.97c0-.82-.67-1.48-1.48-1.48h-63.23Z"/><path class="cls-3" d="m169.38,106.55h-71.04c-2.21,0-4-1.79-4-4s1.79-4,4-4h71.04c2.21,0,4,1.79,4,4s-1.79,4-4,4Z"/><path class="cls-2" d="m133.96,120.75h-21.89c-2.21,0-4-1.79-4-4s1.79-4,4-4h21.89c2.21,0,4,1.79,4,4s-1.79,4-4,4Z"/><path class="cls-2" d="m120.49,132.56h-8.42c-2.21,0-4-1.79-4-4s1.79-4,4-4h8.42c2.21,0,4,1.79,4,4s-1.79,4-4,4Z"/></g></svg>