<svg width="26" height="27" viewBox="0 0 26 27" fill="none" xmlns="http://www.w3.org/2000/svg">
<rect x="19.0664" y="2.6001" width="6.93333" height="13.8667" rx="0.9" fill="#8181FF"/>
<path d="M22.1941 2.67718C22.2115 4.84297 22.1806 7.01102 22.1949 9.17718C22.2122 9.26537 22.3807 9.37126 22.4621 9.43759C23.1555 10.007 23.9443 10.503 24.6622 11.0437C24.8027 11.1892 24.8502 11.3923 24.8713 11.5883C24.8706 13.3034 24.8676 15.0192 24.8698 16.7339C24.874 19.8546 24.8672 22.9769 24.8691 26.098C24.8314 26.5122 24.6071 26.814 24.2122 26.9486C16.4298 27.033 8.63187 26.9587 0.843779 26.9859C0.443182 26.9376 0.102505 26.6765 0.00640647 26.2781L0 11.366L0.0783854 11.1805C0.870159 10.431 1.84734 9.88643 2.6655 9.17002C2.66964 6.77322 2.68622 4.37529 2.67492 1.97811C2.67417 1.79459 2.62744 1.61822 2.63384 1.41283C2.65909 0.618796 3.07627 0.0636886 3.89631 0L20.7802 0.00188382C22.3792 0.250985 22.184 1.42451 22.1941 2.6768V2.67718ZM3.90573 0.989246C3.73049 1.04427 3.65173 1.19991 3.65135 1.37552L3.6604 13.3531C6.40918 15.6014 9.20582 17.8102 11.9908 20.0216C12.4057 20.265 12.6733 20.1795 13.0479 19.93L21.194 13.3787L21.2151 1.60164C21.2098 1.31824 21.0583 1.10532 20.8002 0.999044L3.90498 0.989246H3.90573ZM2.67304 12.3812C2.72881 11.7628 2.63158 11.0671 2.67304 10.4404C2.53473 10.5881 1.25644 11.4289 1.27867 11.5141C1.30505 11.6139 2.50194 12.3541 2.59804 12.5881C2.63384 12.5907 2.67153 12.3974 2.67304 12.3812ZM22.1941 10.4781V12.6262L23.5512 11.5141L22.1941 10.4781ZM0.977186 12.5131V25.4392L8.58891 18.637L0.977186 12.5131ZM23.8896 12.5512L16.3144 18.6366L23.8516 25.3262L23.8892 12.5512H23.8896ZM23.0986 26.0045L15.4722 19.2238L13.4104 20.8951C12.7931 21.2309 12.0541 21.2102 11.4417 20.8725L9.45568 19.2765L9.36976 19.263L1.80627 26.0045H23.0986Z" fill="#0F0E5B"/>
<path d="M7.37511 3.47922C8.16612 3.38463 8.86368 3.64089 9.39957 4.22163C10.4062 3.08842 12.0632 3.23502 12.8942 4.49635C13.9625 6.11796 12.44 7.57677 11.3411 8.61312C10.9232 9.00731 10.229 9.68038 9.77718 9.98864C9.49944 10.1778 9.29858 10.1771 9.02309 9.98827C8.61609 9.70902 7.99051 9.11547 7.60913 8.76424C6.45784 7.70264 4.82869 6.2216 5.86015 4.52726C6.17557 4.00908 6.75744 3.55346 7.37511 3.4796V3.47922ZM7.56353 4.45904C7.01031 4.51746 6.59803 4.9222 6.55318 5.48334C6.49779 6.17788 6.83658 6.58451 7.26959 7.06839C7.91514 7.79007 8.70277 8.37608 9.39995 9.04538C10.0169 8.43864 10.7299 7.9035 11.3223 7.27529C11.7444 6.82796 12.2897 6.22235 12.2411 5.56512C12.1604 4.47525 10.8753 4.08973 10.1329 4.84231C9.88572 5.09292 9.77643 5.54853 9.32835 5.50105C8.98352 5.46449 8.91004 5.15698 8.72199 4.93803C8.43445 4.603 8.00558 4.41269 7.56353 4.45942V4.45904Z" fill="#0F0E5B"/>
<path d="M9.06869 12.142L17.993 12.1333C18.5383 12.1989 18.5587 13.0159 18.0307 13.115H9.13501C8.61156 13.0521 8.60365 12.3089 9.06831 12.1423L9.06869 12.142Z" fill="#0F0E5B"/>
<path d="M8.93931 13.8753L16.1274 13.8667C16.5666 13.9321 16.583 14.7472 16.1578 14.846H8.99273C8.57112 14.7832 8.56475 14.0419 8.93901 13.8757L8.93931 13.8753Z" fill="#0F0E5B"/>
<path d="M8.81828 15.6087L12.8117 15.6001C13.0557 15.6655 13.0648 16.4806 12.8285 16.5794H8.84796C8.61373 16.5166 8.61019 15.7753 8.81811 15.6091L8.81828 15.6087Z" fill="#0F0E5B"/>
<path d="M10.6891 5.43617C11.4146 5.27111 11.6173 6.27807 11.0332 6.45821C10.2527 6.69902 10.0782 5.57523 10.6891 5.43617Z" fill="#0F0E5B"/>
</svg>
