<svg width="40" height="41" viewBox="0 0 40 41" fill="none" xmlns="http://www.w3.org/2000/svg">
<path d="M20.2831 7.02661C19.0581 7.02661 18.056 7.72869 17.3685 8.56619C16.681 7.72661 15.6789 7.02661 14.4539 7.02661C12.2373 7.02661 10.4331 8.83078 10.4331 11.0474C10.4331 11.6933 10.5894 12.3349 10.8873 12.9058C11.0602 13.2849 12.1039 15.2454 16.4456 18.6704C16.706 18.8766 17.0164 18.9787 17.3289 18.9787C17.6414 18.9787 17.9519 18.8766 18.2123 18.6704C21.2102 16.3037 22.656 14.6329 23.3373 13.6537C23.7519 13.0704 24.3019 12.1662 24.3019 11.0474C24.3019 8.83078 22.4977 7.02661 20.281 7.02661H20.2831Z" fill="#09CFAF"/>
<path d="M35.8146 23.1682C35.7542 22.7015 35.5021 22.0244 34.6563 21.4474C32.95 20.2849 31.6355 21.0078 31.15 21.5807L28.0396 24.8161C27.9042 24.3161 27.6542 23.8828 27.2896 23.5349C26.2709 22.564 24.7729 22.6057 24.6042 22.6119L24.1563 22.6328C23.7688 22.6369 22.9896 22.6369 21.4334 22.6099C20.1063 22.5869 19.675 22.2224 19.1271 21.7599C18.4709 21.2057 17.6563 20.5161 15.6292 20.5161C13.2729 20.5161 11.75 21.289 10.9271 21.8849C10.2375 21.2036 9.2917 20.7828 8.25003 20.7828H6.48337C5.24795 20.7828 4.2417 21.789 4.2417 23.0244V31.289C4.2417 32.5349 5.34378 33.6682 6.55628 33.6682H8.32295C9.2792 33.6682 10.1479 33.2849 10.8104 32.6599C11.775 33.0578 13.7271 33.6224 17.0292 33.6224H26.4063C26.5105 33.6224 28.9813 33.5849 31.4855 30.2578L35.2355 25.0682C35.3834 24.8849 35.9375 24.1224 35.8125 23.164L35.8146 23.1682ZM8.32503 32.0057H6.55837C6.25628 32.0057 5.91045 31.6265 5.91045 31.2932V23.0286C5.91045 22.7119 6.16878 22.4536 6.48545 22.4536H8.25212C9.43337 22.4536 10.3959 23.4161 10.3959 24.5974V29.7244C10.3959 30.9619 9.44795 32.0057 8.32503 32.0057ZM33.9459 24.0182L30.1459 29.2724C28.1917 31.8661 26.4646 31.9578 26.4063 31.9599H17.0292C14.3146 31.9599 12.6521 31.5557 11.7709 31.2474C11.9563 30.7786 12.0604 30.264 12.0604 29.7244V24.5974C12.0604 24.139 11.975 23.6994 11.825 23.2932C12.3771 22.8682 13.5813 22.189 15.6292 22.189C17.0459 22.189 17.4896 22.564 18.0521 23.039C18.6917 23.5786 19.4854 24.2515 21.4063 24.2828C22.725 24.3057 23.6688 24.3119 24.2146 24.3036C24.373 24.3036 24.5313 24.2994 24.6771 24.2807C24.9417 24.2724 25.7167 24.3369 26.1417 24.7494C26.373 24.9724 26.4854 25.2869 26.4854 25.7119C26.4854 26.214 26.3834 26.5119 26.2396 26.6911L26.1625 26.7703C26 26.9119 25.8042 26.9411 25.6334 26.9411H19.0688C18.6084 26.9411 18.2354 27.314 18.2354 27.7744C18.2354 28.2349 18.6084 28.6078 19.0688 28.6078H25.6334C26.1625 28.6078 26.7313 28.4474 27.1959 28.0744C27.2438 28.0432 27.2875 28.0057 27.3292 27.9619L32.3709 22.7161L32.4146 22.6682C32.5271 22.5536 32.9167 22.2828 33.7167 22.8265C33.9834 23.0099 34.1334 23.1953 34.1604 23.3807C34.198 23.6411 34.0084 23.9432 33.9459 24.0203V24.0182Z" fill="#0F0E5B"/>
<path d="M21.3188 18.612C21.5709 18.81 21.8709 18.91 22.1709 18.91C22.4709 18.91 22.773 18.81 23.0251 18.612C26.0397 16.2329 27.4918 14.5537 28.173 13.5725C28.5855 12.9912 29.1355 12.0912 29.1355 10.9808C29.1355 8.78079 27.3459 6.99121 25.1459 6.99121C23.9063 6.99121 22.8938 7.71829 22.2105 8.57663C21.5272 7.71829 20.5168 6.99121 19.2772 6.99121C17.0772 6.99121 15.2876 8.78079 15.2876 10.9808C15.2876 11.6225 15.4438 12.2579 15.7397 12.8245C15.9084 13.1954 16.9459 15.1579 21.3209 18.61L21.3188 18.612ZM19.2751 8.65788C20.1584 8.65788 20.9709 9.52038 21.3522 10.3245C21.5084 10.6537 21.8459 10.8662 22.2105 10.8662C22.5751 10.8662 22.9126 10.6537 23.0688 10.3225C23.4501 9.52038 24.2626 8.65788 25.1438 8.65788C26.4251 8.65788 27.4668 9.69954 27.4668 10.9808C27.4668 11.4683 27.2647 11.9704 26.8084 12.6141C26.3084 13.3329 25.048 14.8704 22.1709 17.162C18.0793 13.9016 17.2605 12.1516 17.2584 12.1454L17.223 12.0725C17.0438 11.735 16.9522 11.3683 16.9522 10.9829C16.9522 9.70163 17.9938 8.65996 19.2751 8.65996V8.65788Z" fill="#0F0E5B"/>
</svg>
